<?xml version="1.0" encoding="UTF-8"?>
<svg version="1.1" xmlns="http://www.w3.org/2000/svg" width="800" height="600">
<path d="M0 0 C264 0 528 0 800 0 C800 198 800 396 800 600 C536 600 272 600 0 600 C0 402 0 204 0 0 Z " fill="#22C8D6" transform="translate(0,0)"/>
<path d="M0 0 C3.96 2.97 3.96 2.97 8 6 C8 38.67 8 71.34 8 105 C-256 105 -520 105 -792 105 C-792 77.28 -792 49.56 -792 21 C-780.47450459 11.77960367 -780.47450459 11.77960367 -773.625 9.0625 C-772.94050781 8.77310547 -772.25601563 8.48371094 -771.55078125 8.18554688 C-758.01342366 2.54717172 -739.27006482 2.66026238 -725.375 7.125 C-723.2196369 8.01294015 -721.08881794 8.96517277 -719 10 C-718.08863281 10.44601562 -717.17726563 10.89203125 -716.23828125 11.3515625 C-699.9362523 20.28896888 -689.61669344 35.02539861 -683 52 C-682.3915625 51.443125 -681.783125 50.88625 -681.15625 50.3125 C-665.21237556 36.43195049 -647.9921208 30.73270546 -627 32 C-609.54073087 33.68057136 -594.40699272 43.08482016 -583 56 C-581.54580337 57.95469248 -580.27783969 59.92351051 -579 62 C-578.34 62.33 -577.68 62.66 -577 63 C-576.93683594 62.36835937 -576.87367188 61.73671875 -576.80859375 61.0859375 C-574.71576044 45.79723941 -565.97426393 32.78134803 -554.4375 22.8125 C-550.18131322 19.58710846 -545.67823296 17.05196812 -540.9375 14.625 C-540.289021 14.29089111 -539.64054199 13.95678223 -538.97241211 13.61254883 C-525.51541158 7.05042418 -507.02400485 6.46752286 -492.75 10.625 C-490.81330767 11.36632991 -488.89466941 12.15704387 -487 13 C-485.50533203 13.60134766 -485.50533203 13.60134766 -483.98046875 14.21484375 C-475.5034354 17.96911397 -469.43878233 23.50355694 -463 30 C-462.40445312 30.56203125 -461.80890625 31.1240625 -461.1953125 31.703125 C-455.85415878 37.18863422 -449 48.33422496 -449 56 C-448.14019531 55.52949219 -447.28039062 55.05898438 -446.39453125 54.57421875 C-430.53570287 46.1172336 -413.95249588 43.34398003 -396.3125 47.5 C-377.42893699 53.29015233 -364.14750529 64.13952967 -354 81 C-353.34 81.99 -352.68 82.98 -352 84 C-351.40574219 83.35933594 -350.81148438 82.71867188 -350.19921875 82.05859375 C-336.46925778 67.73074956 -320.62196846 60.40116934 -300.81079102 59.66650391 C-289.43228963 59.45044837 -279.30023555 62.09512593 -269 67 C-268.96132812 66.01773438 -268.96132812 66.01773438 -268.921875 65.015625 C-267.88228277 48.28764087 -260.69295845 34.75181562 -249 23 C-248.33484375 22.30003906 -247.6696875 21.60007812 -246.984375 20.87890625 C-234.96594834 9.11277481 -218.14140925 3.46258204 -201.56982422 3.57763672 C-182.03264812 4.24382525 -165.47900849 12.79059739 -152.1875 26.9375 C-143 37.47706117 -143 37.47706117 -143 43 C-142.09121094 42.32904297 -142.09121094 42.32904297 -141.1640625 41.64453125 C-130.85893834 34.20898782 -119.97753446 27.90987328 -106.890625 27.94921875 C-99.35146363 28.30373378 -99.35146363 28.30373378 -92.96484375 25.0703125 C-91.51497088 22.56213805 -91.51497088 22.56213805 -90.328125 19.82421875 C-84.68385797 7.82185093 -71.02272062 -1.24171198 -59 -6 C-38.93867138 -13.03299452 -18.24942047 -11.28054836 0 0 Z " fill="#FEFEFE" transform="translate(792,495)"/>
<path d="M0 0 C6.73082496 1.25683614 11.57085321 10.37133166 15.32397461 15.77758789 C33.45484948 42.6584139 45.14571471 74.63732676 44.390625 107.3125 C43.99875971 128.6717061 45.84286196 143.86566471 56.52246094 162.78076172 C60.08975186 169.20545135 63.06462463 175.93952771 66.14840698 182.6050415 C67.19768524 184.86479071 68.25852812 187.11867108 69.32446289 189.37060547 C69.65662811 190.07285751 69.98879333 190.77510956 70.33102417 191.49864197 C70.95245955 192.81174729 71.57450711 194.12456314 72.19729614 195.43702698 C76.9479733 205.5141247 76.9479733 205.5141247 75.53125 210.47265625 C69.96346951 209.90725341 65.34899114 208.44122094 60.19140625 206.3125 C59.42444931 206.00317032 58.65749237 205.69384064 57.86729431 205.37513733 C55.43974354 204.39411311 53.01675826 203.40233947 50.59375 202.41015625 C48.93974385 201.73951692 47.28544958 201.06958771 45.63085938 200.40039062 C41.59427753 198.76600679 37.56175179 197.12197375 33.53125 195.47265625 C33.06509277 195.88620361 32.59893555 196.29975098 32.11865234 196.72583008 C31.49941895 197.26747803 30.88018555 197.80912598 30.2421875 198.3671875 C29.63165527 198.90448486 29.02112305 199.44178223 28.39208984 199.99536133 C26.53125 201.47265625 26.53125 201.47265625 23.15625 203.16015625 C20.35418071 205.14997808 20.35418071 205.14997808 20.11328125 207.70703125 C20.01292091 209.5840408 19.92528385 211.46175669 19.84765625 213.33984375 C18.86933797 223.02640251 13.7888091 232.16228507 7.53125 239.47265625 C3.7938644 241.96424665 1.95793417 241.9305891 -2.46875 241.47265625 C-9.83246669 237.52139364 -13.34255321 228.45793737 -15.84375 220.91015625 C-17.37819816 215.55860978 -17.84430872 211.0121474 -17.46875 205.47265625 C-18.12875 205.28703125 -18.78875 205.10140625 -19.46875 204.91015625 C-23.1490094 203.14669862 -25.54653177 200.71295241 -28.40625 197.8359375 C-30.36785673 196.22284946 -30.36785673 196.22284946 -32.67456055 196.71948242 C-35.99626668 197.61484838 -39.06159348 198.83767529 -42.23828125 200.16015625 C-43.55261337 200.69951371 -44.8670705 201.23856664 -46.18164062 201.77734375 C-48.23024859 202.62274658 -50.27751177 203.47109497 -52.32250977 204.32519531 C-54.31181238 205.15385135 -56.30585057 205.97016008 -58.30078125 206.78515625 C-59.48389893 207.27628906 -60.6670166 207.76742187 -61.88598633 208.2734375 C-65.84141048 209.59739276 -69.32767852 210.08556042 -73.46875 210.47265625 C-74.75499069 206.14856312 -74.18892534 204.04874747 -72.1796875 200.0625 C-71.65624756 199.00337402 -71.13280762 197.94424805 -70.59350586 196.85302734 C-70.01608643 195.71687988 -69.43866699 194.58073242 -68.84375 193.41015625 C-67.95033616 191.60658091 -67.05697366 189.80297811 -66.16654968 187.9979248 C-65.54804358 186.74465096 -64.92799332 185.49213811 -64.30647278 184.24035645 C-60.88289847 177.33333758 -57.63883975 170.3455573 -54.40625 163.34765625 C-53.87112793 162.19386475 -53.33600586 161.04007324 -52.78466797 159.85131836 C-51.33903428 156.72813482 -49.89547025 153.60452835 -48.46875 150.47265625 C-47.9502523 149.46435509 -47.9502523 149.46435509 -47.42127991 148.4356842 C-44.60111071 142.7061106 -43.92551316 138.07434737 -44.03515625 131.734375 C-44.02971591 129.85652465 -44.02358613 127.97867621 -44.0168457 126.10083008 C-44.02011871 125.13029694 -44.02339172 124.15976379 -44.02676392 123.15982056 C-44.05477678 104.42874406 -43.12103753 86.69572441 -38.46875 68.47265625 C-38.2615332 67.65023437 -38.05431641 66.8278125 -37.84082031 65.98046875 C-33.81173177 50.76089106 -18.08356331 3.4622012 0 0 Z " fill="#F1F2F2" transform="translate(403.46875,137.52734375)"/>
<path d="M0 0 C9.86972828 7.19862455 18.87751826 16.64842572 20.88671875 29.10546875 C21.45479248 28.9461084 22.02286621 28.78674805 22.6081543 28.62255859 C36.35250474 25.50346139 51.78738325 27.73458298 63.8515625 34.85546875 C66.29140412 36.51785716 68.59650863 38.24415253 70.88671875 40.10546875 C71.71945312 40.73195313 72.5521875 41.3584375 73.41015625 42.00390625 C80.57379745 48.08283206 86.00203541 57.20178268 88.88671875 66.10546875 C89.01171875 68.92578125 89.01171875 68.92578125 88.88671875 71.10546875 C88.33435547 71.08452148 87.78199219 71.06357422 87.21289062 71.04199219 C72.13433215 70.54853481 57.63978198 70.72319657 44.48828125 79.15234375 C42.88671875 80.10546875 42.88671875 80.10546875 40.88671875 80.10546875 C40.60699219 79.36683594 40.32726562 78.62820313 40.0390625 77.8671875 C32.74538599 59.41019904 21.2779611 45.80153257 2.7890625 37.7578125 C-5.53180892 34.63328609 -12.89685658 33.89875602 -21.73828125 33.85546875 C-23.28322266 33.82453125 -23.28322266 33.82453125 -24.859375 33.79296875 C-41.00954697 33.71171002 -55.51237606 40.13188584 -67.6484375 50.6640625 C-77.75181917 60.67137398 -84.02198149 73.33020317 -87.11328125 87.10546875 C-90.62539613 85.93476379 -91.09177417 85.05482521 -93.17578125 82.10546875 C-103.04203448 69.15601139 -117.1733817 60.29867206 -133.33984375 57.55859375 C-152.4147058 55.26803061 -169.67683222 58.59890997 -185.23046875 70.48828125 C-187.89723786 72.65291063 -190.52266648 74.85058162 -193.11328125 77.10546875 C-195.01080004 74.25919056 -195.99518434 71.85431094 -197.17578125 68.66796875 C-200.082191 61.5862742 -204.22716288 55.95348847 -209.11328125 50.10546875 C-209.94472656 49.10193359 -209.94472656 49.10193359 -210.79296875 48.078125 C-221.74344292 36.0652914 -237.51043259 30.25092908 -253.36572266 29.41381836 C-257.9479789 29.23995535 -262.527873 29.13594651 -267.11328125 29.10546875 C-267.11328125 28.77546875 -267.11328125 28.44546875 -267.11328125 28.10546875 C-265.44652344 28.11900391 -265.44652344 28.11900391 -263.74609375 28.1328125 C-255.07880399 28.02744698 -249.45675231 27.5623464 -242.515625 21.9609375 C-231.46687894 13.42735314 -217.40320308 13.72140122 -204.11328125 15.10546875 C-191.76126646 17.14254043 -181.42723068 23.93145559 -173.11328125 33.10546875 C-172.42105469 32.07099609 -172.42105469 32.07099609 -171.71484375 31.015625 C-162.88853526 18.29946118 -151.88536474 8.83848505 -136.73828125 4.66796875 C-120.49085659 2.02513442 -105.1060038 4.88209071 -91.46484375 14.2578125 C-88.05007581 16.94084445 -84.99972451 19.86437718 -82.11328125 23.10546875 C-79.61549365 20.12733739 -77.47159585 17.08678725 -75.42578125 13.79296875 C-67.67603625 2.23532435 -54.61450619 -5.49633096 -41.08911133 -8.55029297 C-26.61934345 -11.07128305 -12.36414538 -7.74203496 0 0 Z " fill="#7BDDE6" transform="translate(302.11328125,470.89453125)"/>
<path d="M0 0 C7.01810539 4.57046863 13.69543797 9.89434631 17.75 17.3125 C16.35201172 17.80556641 16.35201172 17.80556641 14.92578125 18.30859375 C-2.52534331 24.71916393 -14.60704168 34.33419439 -24.25 50.3125 C-24.91 51.3025 -25.57 52.2925 -26.25 53.3125 C-28.76791654 53.62498606 -31.10137414 53.7715245 -33.625 53.8125 C-48.21119602 54.42107395 -61.20446438 58.42965234 -72.25 68.3125 C-72.91 68.3125 -73.57 68.3125 -74.25 68.3125 C-74.70826172 67.33023438 -74.70826172 67.33023438 -75.17578125 66.328125 C-83.22830776 50.26843833 -96.23336462 38.96852558 -113.25 33.3125 C-130.87843178 27.84160738 -148.38047281 29.1850793 -164.9375 37.375 C-179.88238974 45.95957996 -192.26559671 59.86263833 -196.89599609 76.65527344 C-198.17711749 81.84274836 -199.24871504 87.06458883 -200.25 92.3125 C-204.92355607 91.49970764 -209.11353953 89.93766467 -213.53125 88.25 C-228.60185245 83.05324053 -247.40805011 86.08463494 -261.4375 92.8125 C-268.22332861 96.24817522 -273.51142595 100.66105701 -278.89453125 105.9921875 C-281.25 108.3125 -281.25 108.3125 -284.25 110.3125 C-284.58 109.6525 -284.91 108.9925 -285.25 108.3125 C-284.59 108.3125 -283.93 108.3125 -283.25 108.3125 C-283.3325 107.095625 -283.415 105.87875 -283.5 104.625 C-283.43790713 91.44061448 -276.63604675 80.03906724 -268.25 70.3125 C-256.89282478 60.73328512 -245.26773201 54.8918072 -230.3125 55.1875 C-229.43787109 55.19652344 -228.56324219 55.20554687 -227.66210938 55.21484375 C-225.52461936 55.2382043 -223.38727214 55.27406753 -221.25 55.3125 C-221.30220703 54.33023438 -221.30220703 54.33023438 -221.35546875 53.328125 C-221.8182973 37.72419103 -216.46316807 23.93192544 -205.76489258 12.54882812 C-194.98771386 1.75193397 -181.65030481 -3.62180226 -166.5 -4.3125 C-154.89579674 -4.22166475 -143.22276525 -0.62326069 -134.4375 7 C-132.02835794 9.15115568 -132.02835794 9.15115568 -129.25 10.3125 C-124.43465477 9.50810594 -120.55391239 7.53825442 -116.25 5.3125 C-100.80259013 0.64152572 -84.16889196 5.55086773 -70.25 12.3125 C-69.87230469 11.88839844 -69.49460937 11.46429688 -69.10546875 11.02734375 C-51.14329456 -8.11267793 -23.04419778 -12.82615039 0 0 Z " fill="#7ADDE6" transform="translate(723.25,469.6875)"/>
<path d="M0 0 C0.56976563 0.144375 1.13953125 0.28875 1.7265625 0.4375 C10.48261224 2.6039453 18.98551594 3.46973623 28 4 C28 10.6 28 17.2 28 24 C30.31 24 32.62 24 35 24 C35.495 24.99 35.495 24.99 36 26 C35.0821875 26.02578125 34.164375 26.0515625 33.21875 26.078125 C23.01896302 26.54954373 16.65008916 28.20125305 9 35 C4.34397604 41.8880875 1.51074998 48.68609991 3 57 C5.03811317 65.60536673 8.49441369 71.53783323 16.03125 76.27734375 C22.10616748 79.36982891 28.26813963 79.77218747 35 80 C34.67 80.66 34.34 81.32 34 82 C32.02 82 30.04 82 28 82 C28.11454804 84.87575868 28.2412847 87.75012112 28.375 90.625 C28.4059375 91.43324219 28.436875 92.24148438 28.46875 93.07421875 C28.69814296 97.77677434 29.46179016 101.52627521 31 106 C32.01958065 112.18919067 32.26242611 118.49272153 32.5625 124.75 C32.60568359 125.554375 32.64886719 126.35875 32.69335938 127.1875 C33.26785622 138.78686483 33.00603904 150.3134199 32.25537109 161.89575195 C32.12360439 163.95935679 32.00499138 166.02347345 31.88671875 168.08789062 C31.80287732 169.42192514 31.71827012 170.75591179 31.6328125 172.08984375 C31.55949707 173.27441162 31.48618164 174.45897949 31.41064453 175.67944336 C30.99827969 179.01391082 30.17420538 181.86032882 29 185 C26.72822468 183.22208888 26.03727149 182.14569764 25.3125 179.3125 C24.95342844 175.50634145 24.93410304 171.82202339 25 168 C24.0925 168.0825 23.185 168.165 22.25 168.25 C14.1017902 168.18402259 6.91553352 165.26693596 1.0625 159.6875 C0.39347656 158.96949219 -0.27554688 158.25148438 -0.96484375 157.51171875 C-2.87650591 155.73440574 -2.87650591 155.73440574 -5.20410156 156.23754883 C-8.52271529 157.14254627 -11.5932618 158.3651932 -14.76953125 159.6875 C-16.08386337 160.22685746 -17.3983205 160.76591039 -18.71289062 161.3046875 C-20.76149859 162.15009033 -22.80876177 162.99843872 -24.85375977 163.85253906 C-26.84306238 164.6811951 -28.83710057 165.49750383 -30.83203125 166.3125 C-32.01514893 166.80363281 -33.1982666 167.29476562 -34.41723633 167.80078125 C-38.37266048 169.12473651 -41.85892852 169.61290417 -46 170 C-47.28624069 165.67590687 -46.72017534 163.57609122 -44.7109375 159.58984375 C-44.18749756 158.53071777 -43.66405762 157.4715918 -43.12475586 156.38037109 C-42.54733643 155.24422363 -41.96991699 154.10807617 -41.375 152.9375 C-40.48158616 151.13392466 -39.58822366 149.33032186 -38.69779968 147.52526855 C-38.07929358 146.27199471 -37.45924332 145.01948186 -36.83772278 143.7677002 C-33.41414847 136.86068133 -30.17008975 129.87290105 -26.9375 122.875 C-26.13481689 121.14431274 -26.13481689 121.14431274 -25.31591797 119.37866211 C-23.87028428 116.25547857 -22.42672025 113.1318721 -21 110 C-20.65433487 109.32779922 -20.30866974 108.65559845 -19.95252991 107.96302795 C-17.13236071 102.23345435 -16.45676316 97.60169112 -16.56640625 91.26171875 C-16.56096591 89.3838684 -16.55483613 87.50601996 -16.5480957 85.62817383 C-16.55136871 84.65764069 -16.55464172 83.68710754 -16.55801392 82.68716431 C-16.60048791 54.2865114 -14.34144234 25.25616837 0 0 Z " fill="#FCFDFD" transform="translate(376,178)"/>
<path d="M0 0 C6.55121977 3.82513654 11.80864336 9.41329706 14.12890625 16.734375 C15.57047525 24.26689769 15.51970249 32.26433618 11.5625 39 C6.75969561 45.91197245 1.44046354 49.37401215 -6.4375 52 C-16.08047604 53.02740993 -22.71855265 51.22609353 -30.47265625 45.49609375 C-36.75548463 39.96026832 -39.4661748 32.30503943 -40.0625 24.0625 C-39.7007945 16.73504658 -36.34187476 9.92985173 -31.2109375 4.75390625 C-22.12791289 -2.55200485 -11.01720232 -5.01857222 0 0 Z " fill="#17B6C9" transform="translate(417.4375,206)"/>
<path d="M0 0 C7.18942863 1.44235816 12.67933483 11.91108297 16.63671875 17.75390625 C21.2399136 24.70188965 24.99747711 31.9517777 28.51171875 39.50390625 C20.80621766 44.61736753 13.65644986 45.20482495 4.63476562 44.9909668 C2.51502167 44.94148335 0.39761443 44.92946714 -1.72265625 44.92382812 C-21.0942358 44.76657288 -21.0942358 44.76657288 -27.48828125 39.50390625 C-8.65002156 1.75173121 -8.65002156 1.75173121 0 0 Z " fill="#DBDCDD" transform="translate(403.48828125,137.49609375)"/>
<path d="M0 0 C3.48597397 1.16916411 6.26901535 2.51042836 9 5 C10.02399069 8.22268931 10.32182317 11.22584942 10.6328125 14.58984375 C11.64162236 23.95889701 16.01902823 31.84051162 22 39 C24.98997825 40.49498913 27.70042775 40.11577446 31 40 C34.06160777 39.35118569 34.06160777 39.35118569 35.00390625 37.23046875 C35.33261719 36.49441406 35.66132813 35.75835937 36 35 C36.97169265 33.4328411 37.95142482 31.87064933 38.9375 30.3125 C42.93677733 23.6405349 44.99969254 18.04400965 45.1875 10.25 C45.46575512 5.52628804 45.46575512 5.52628804 47.8359375 3.19140625 C49.84995298 1.94413 51.81175378 0.90221541 54 0 C54.79813449 22.49556831 49.63142556 46.21480427 35 64 C31.1796594 66.72963913 28.7197993 67.68830406 24 67 C10.18107323 57.45317047 4.44843887 33.75947137 1.32714844 18.02197266 C0.36335956 12.06518202 0.16019288 6.02325247 0 0 Z " fill="#7ADCE5" transform="translate(377,338)"/>
<path d="M0 0 C1.87278712 0.23835472 3.74503805 0.48222277 5.61328125 0.75390625 C8.1530173 1.01577756 10.57482267 0.96373537 13.125 0.875 C18.4697144 0.85865531 21.68341558 1.8702369 25.6953125 5.55859375 C30.10120437 10.48704488 30.73401726 14.72038235 30.40625 21.2265625 C29.90979653 24.61581213 28.81015602 27.10375037 27 30 C26.31363375 32.23525035 26.31363375 32.23525035 26 34 C26 33.01 26 32.02 26 31 C25.01 31.99 24.02 32.98 23 34 C23.66 34.66 24.32 35.32 25 36 C24.2575 35.835 23.515 35.67 22.75 35.5 C19.35909288 35.04787905 16.40345395 35.0647386 13 35.1875 C7.7835737 35.22623584 4.95104565 34.65471722 1 31 C-2.99215455 26.57626118 -4.14744078 23.46722906 -4.1875 17.5625 C-4.20167969 16.61503906 -4.21585937 15.66757812 -4.23046875 14.69140625 C-3.99218921 11.90878582 -3.31486383 10.41894797 -2 8 C-1.64456573 5.66993089 -1.3086247 3.33672984 -1 1 C-0.67 0.67 -0.34 0.34 0 0 Z " fill="#24C8D6" transform="translate(119,429)"/>
<path d="M0 0 C1.07507813 -0.00128906 2.15015625 -0.00257813 3.2578125 -0.00390625 C4.38960937 -0.00003906 5.52140625 0.00382813 6.6875 0.0078125 C7.81929687 0.00394531 8.95109375 0.00007812 10.1171875 -0.00390625 C11.19226563 -0.00261719 12.26734375 -0.00132812 13.375 0 C14.86580078 0.00169189 14.86580078 0.00169189 16.38671875 0.00341797 C18.6875 0.1328125 18.6875 0.1328125 19.6875 1.1328125 C19.77593793 3.58111676 19.80278752 6.00101849 19.78515625 8.44921875 C19.7837413 9.18027328 19.78232635 9.91132782 19.78086853 10.66453552 C19.77525408 13.00816882 19.76269922 15.35170789 19.75 17.6953125 C19.74498686 19.28059758 19.74042363 20.86588416 19.73632812 22.45117188 C19.72527997 26.3450886 19.70800572 30.23893455 19.6875 34.1328125 C18.2025 34.6278125 18.2025 34.6278125 16.6875 35.1328125 C16.6875 36.1228125 16.6875 37.1128125 16.6875 38.1328125 C16.0275 38.1328125 15.3675 38.1328125 14.6875 38.1328125 C14.6875 37.1428125 14.6875 36.1528125 14.6875 35.1328125 C14.0275 35.1328125 13.3675 35.1328125 12.6875 35.1328125 C13.0175 36.1228125 13.3475 37.1128125 13.6875 38.1328125 C13.0275 38.1328125 12.3675 38.1328125 11.6875 38.1328125 C11.6875 37.1428125 11.6875 36.1528125 11.6875 35.1328125 C8.3875 35.1328125 5.0875 35.1328125 1.6875 35.1328125 C1.6875 36.4528125 1.6875 37.7728125 1.6875 39.1328125 C0.0375 38.8028125 -1.6125 38.4728125 -3.3125 38.1328125 C-3.3125 37.1428125 -3.3125 36.1528125 -3.3125 35.1328125 C-4.3025 34.8028125 -5.2925 34.4728125 -6.3125 34.1328125 C-6.33715288 29.45141996 -6.35533739 24.77006491 -6.36743164 20.08862305 C-6.37247157 18.49486636 -6.3793035 16.90111431 -6.38793945 15.30737305 C-6.40001999 13.02130997 -6.40573155 10.73530783 -6.41015625 8.44921875 C-6.41531754 7.73254532 -6.42047882 7.01587189 -6.42579651 6.27748108 C-6.42599263 4.56217578 -6.37442007 2.84699984 -6.3125 1.1328125 C-4.59682208 -0.58286542 -2.33877265 0.00265425 0 0 Z " fill="#25C8D7" transform="translate(185.3125,237.8671875)"/>
<path d="M0 0 C5.61548474 0.33692908 9.65134928 2.77358145 14.375 5.5625 C15.11105469 5.98724609 15.84710937 6.41199219 16.60546875 6.84960938 C18.40839699 7.89156141 20.20487053 8.94466854 22 10 C21.46572808 14.62479134 20.24654175 17.80910692 17.875 21.80078125 C17.25109375 22.85974609 16.6271875 23.91871094 15.984375 25.00976562 C15.32953125 26.09966797 14.6746875 27.18957031 14 28.3125 C13.34515625 29.42173828 12.6903125 30.53097656 12.015625 31.67382812 C7.19666353 39.80333647 7.19666353 39.80333647 6 41 C2.20637413 41.32865471 0.02085887 40.78373061 -3.20703125 38.8125 C-3.95791016 38.36132812 -4.70878906 37.91015625 -5.48242188 37.4453125 C-6.25134766 36.96835938 -7.02027344 36.49140625 -7.8125 36 C-8.99489258 35.28457031 -8.99489258 35.28457031 -10.20117188 34.5546875 C-12.14029896 33.37945896 -14.07267607 32.19445162 -16 31 C-15.46572808 26.37520866 -14.24654175 23.19089308 -11.875 19.19921875 C-11.25109375 18.14025391 -10.6271875 17.08128906 -9.984375 15.99023438 C-9.32953125 14.90033203 -8.6746875 13.81042969 -8 12.6875 C-7.34515625 11.57826172 -6.6903125 10.46902344 -6.015625 9.32617188 C-1.19666353 1.19666353 -1.19666353 1.19666353 0 0 Z " fill="#25C8D7" transform="translate(685,124)"/>
<path d="M0 0 C0.41362793 0.74161377 0.82725586 1.48322754 1.25341797 2.24731445 C2.79182082 5.00421358 4.331328 7.76049217 5.87158203 10.51635742 C6.53738882 11.70816778 7.20275769 12.9002229 7.86767578 14.0925293 C8.82468742 15.80842684 9.78341652 17.52336614 10.7421875 19.23828125 C11.3182373 20.26993408 11.89428711 21.30158691 12.48779297 22.36450195 C13.58938152 24.2843677 14.77219623 26.15829434 16 28 C15.83886719 30.04223633 15.83886719 30.04223633 15 32 C13.49707031 33.2644043 13.49707031 33.2644043 11.578125 34.32421875 C10.88203125 34.71287109 10.1859375 35.10152344 9.46875 35.50195312 C8.7365625 35.89318359 8.004375 36.28441406 7.25 36.6875 C6.53328125 37.09033203 5.8165625 37.49316406 5.078125 37.90820312 C1.35118375 39.95322512 -1.77210819 41.28756266 -6 42 C-8.3358962 38.09746467 -10.65036886 34.18330889 -12.94580078 30.25683594 C-13.72973195 28.9226922 -14.51942803 27.59191859 -15.31494141 26.26464844 C-16.45704388 24.35686677 -17.57791092 22.43795181 -18.6953125 20.515625 C-19.05561554 19.92380432 -19.41591858 19.33198364 -19.78713989 18.722229 C-22.1502917 14.59089043 -22.1502917 14.59089043 -21.42871094 11.75390625 C-19.89099182 9.86617998 -18.50599668 8.71470962 -16.4453125 7.421875 C-15.74792969 6.98359375 -15.05054687 6.5453125 -14.33203125 6.09375 C-13.60371094 5.6503125 -12.87539062 5.206875 -12.125 4.75 C-11.40441406 4.29109375 -10.68382813 3.8321875 -9.94140625 3.359375 C-4.51241629 0 -4.51241629 0 0 0 Z " fill="#25C8D7" transform="translate(111,123)"/>
<path d="M0 0 C0.65830811 -0.00191345 1.31661621 -0.0038269 1.99487305 -0.00579834 C3.3868854 -0.0071595 4.77891047 -0.00346783 6.17089844 0.00488281 C8.30432589 0.015584 10.43691131 0.00498594 12.5703125 -0.0078125 C13.92187686 -0.00649089 15.2734407 -0.00392847 16.625 0 C18.47544922 0.00338379 18.47544922 0.00338379 20.36328125 0.00683594 C23.3125 0.265625 23.3125 0.265625 25.3125 2.265625 C25.57128906 4.20507813 25.57128906 4.20507813 25.578125 6.546875 C25.58199219 7.80951172 25.58199219 7.80951172 25.5859375 9.09765625 C25.57820312 9.97808594 25.57046875 10.85851562 25.5625 11.765625 C25.57410156 13.08626953 25.57410156 13.08626953 25.5859375 14.43359375 C25.58335937 15.27535156 25.58078125 16.11710937 25.578125 16.984375 C25.57586914 17.75716797 25.57361328 18.52996094 25.57128906 19.32617188 C25.3125 21.265625 25.3125 21.265625 23.3125 23.265625 C22.3225 23.265625 21.3325 23.265625 20.3125 23.265625 C19.9825 24.915625 19.6525 26.565625 19.3125 28.265625 C15.85418414 28.29457047 12.39589928 28.312405 8.9375 28.328125 C7.95265625 28.33650391 6.9678125 28.34488281 5.953125 28.35351562 C4.54160156 28.35834961 4.54160156 28.35834961 3.1015625 28.36328125 C1.79759521 28.37113647 1.79759521 28.37113647 0.46728516 28.37915039 C-1.6875 28.265625 -1.6875 28.265625 -3.6875 27.265625 C-3.6875 25.945625 -3.6875 24.625625 -3.6875 23.265625 C-4.326875 23.12125 -4.96625 22.976875 -5.625 22.828125 C-7.6875 22.265625 -7.6875 22.265625 -8.6875 21.265625 C-8.93716567 18.1273905 -8.87271791 14.97512887 -8.875 11.828125 C-8.88724609 10.94318359 -8.89949219 10.05824219 -8.91210938 9.14648438 C-8.91404297 8.30021484 -8.91597656 7.45394531 -8.91796875 6.58203125 C-8.92207764 5.80287354 -8.92618652 5.02371582 -8.93041992 4.22094727 C-8.29939639 -0.85831654 -4.09273316 0.0074841 0 0 Z " fill="#25C8D7" transform="translate(591.6875,347.734375)"/>
<path d="M0 0 C4.95 0.99 9.9 1.98 15 3 C15.48828125 6.58072917 15.9765625 10.16145833 16.46484375 13.7421875 C16.81433227 16.87559454 16.81433227 16.87559454 18 19 C19.64800856 15.33552568 20.33580973 12.18796534 20.625 8.1875 C20.74875 6.475625 20.8725 4.76375 21 3 C26.28 2.01 31.56 1.02 37 0 C37.87189901 13.07848511 33.52597074 24.03956499 25 34 C21.2626144 36.4915904 19.42668417 36.45793285 15 36 C7.63628331 32.04873739 4.12619679 22.98528112 1.625 15.4375 C0.09055184 10.08595353 -0.37555872 5.53949115 0 0 Z " fill="#C5EDEF" transform="translate(386,343)"/>
<path d="M0 0 C2.75984517 1.31892865 3.56096631 3.01948139 5.06762695 5.66088867 C5.62772461 6.62768555 6.18782227 7.59448242 6.76489258 8.59057617 C7.33788086 9.60893555 7.91086914 10.62729492 8.5012207 11.67651367 C9.07807617 12.6794043 9.65493164 13.68229492 10.24926758 14.71557617 C11.32814059 16.59209348 12.40172206 18.47167017 13.46826172 20.35522461 C14.91942483 22.96889549 14.91942483 22.96889549 16.68847656 25.50561523 C17.9387207 27.92651367 17.9387207 27.92651367 17.84228516 30.08935547 C16.71575009 32.37986515 15.69280697 33.06801334 13.48168945 34.32104492 C12.78108398 34.7187207 12.08047852 35.11639648 11.35864258 35.52612305 C10.25359375 36.12650391 10.25359375 36.12650391 9.1262207 36.73901367 C8.40112305 37.15860352 7.67602539 37.57819336 6.92895508 38.01049805 C1.64358202 40.94574182 1.64358202 40.94574182 -1.07495117 40.87158203 C-4.06174112 39.45050732 -5.02088849 37.35467354 -6.69799805 34.53588867 C-7.35735352 33.43374023 -8.01670898 32.3315918 -8.69604492 31.19604492 C-9.03289307 30.61806152 -9.36974121 30.04007812 -9.71679688 29.44458008 C-10.74186721 27.68835595 -11.78737926 25.94569471 -12.83666992 24.20385742 C-18.37316073 14.85116203 -18.37316073 14.85116203 -19.0612793 9.92651367 C-16.32341369 8.21869633 -13.5693201 6.53901894 -10.8112793 4.86401367 C-10.03397461 4.37868164 -9.25666992 3.89334961 -8.45581055 3.39331055 C-7.3246582 2.71171875 -7.3246582 2.71171875 -6.1706543 2.01635742 C-5.13376465 1.38008423 -5.13376465 1.38008423 -4.07592773 0.73095703 C-2.0612793 -0.07348633 -2.0612793 -0.07348633 0 0 Z " fill="#24C8D6" transform="translate(713.061279296875,272.073486328125)"/>
<path d="M0 0 C3.5735446 1.96884409 6.15748506 3.96787475 8.8125 7.0625 C9.41707031 7.75472656 10.02164062 8.44695312 10.64453125 9.16015625 C12 11 12 11 12 13 C13.17755859 12.96519531 13.17755859 12.96519531 14.37890625 12.9296875 C20.34792603 12.82715219 25.37403518 12.95419461 31 15 C30.36111113 20.06040549 28.13720723 24.28011534 25.9375 28.8125 C25.56044922 29.60076172 25.18339844 30.38902344 24.79492188 31.20117188 C23.86829839 33.13652473 22.93482533 35.06859549 22 37 C21.41557129 36.8563501 20.83114258 36.7127002 20.22900391 36.56469727 C15.84171647 35.52982365 11.90183517 34.87595692 7.375 34.9375 C3.93389073 34.68758704 2.47981905 34.44374243 -0.078125 32.078125 C-1.26543092 30.49849191 -2.40662864 28.88301135 -3.49609375 27.234375 C-5.28722673 24.57326315 -7.37913919 22.82666056 -10 21 C-9.36355878 18.00843299 -8.38047987 15.58061047 -6.93359375 12.890625 C-6.53076172 12.13652344 -6.12792969 11.38242188 -5.71289062 10.60546875 C-5.29201172 9.82816406 -4.87113281 9.05085937 -4.4375 8.25 C-4.01275391 7.45722656 -3.58800781 6.66445312 -3.15039062 5.84765625 C-2.10417583 3.89628933 -1.05394047 1.94720186 0 0 Z " fill="#5AD5E1" transform="translate(255,132)"/>
<path d="M0 0 C1.53333984 -0.00386719 1.53333984 -0.00386719 3.09765625 -0.0078125 C4.16886719 -0.00007813 5.24007812 0.00765625 6.34375 0.015625 C7.41496094 0.00789063 8.48617187 0.00015625 9.58984375 -0.0078125 C10.61207031 -0.00523438 11.63429688 -0.00265625 12.6875 0 C13.62787109 0.00225586 14.56824219 0.00451172 15.53710938 0.00683594 C17.84375 0.265625 17.84375 0.265625 19.84375 2.265625 C20.66248828 4.87227937 21.37823322 7.43069596 22.03125 10.078125 C22.22138672 10.79033203 22.41152344 11.50253906 22.60742188 12.23632812 C23.60712113 16.22405837 24.14489063 19.31707684 22.84375 23.265625 C21.84375 24.265625 21.84375 24.265625 19.55859375 24.36328125 C18.18380859 24.34587891 18.18380859 24.34587891 16.78125 24.328125 C15.86214844 24.31910156 14.94304688 24.31007813 13.99609375 24.30078125 C13.28582031 24.28917969 12.57554687 24.27757813 11.84375 24.265625 C11.72 25.008125 11.59625 25.750625 11.46875 26.515625 C10.88888299 29.06703985 10.10666261 30.9923823 8.84375 33.265625 C10.49375 33.265625 12.14375 33.265625 13.84375 33.265625 C13.84375 33.925625 13.84375 34.585625 13.84375 35.265625 C9.22375 35.265625 4.60375 35.265625 -0.15625 35.265625 C-0.15625 34.935625 -0.15625 34.605625 -0.15625 34.265625 C1.49375 34.265625 3.14375 34.265625 4.84375 34.265625 C4.555 33.71132813 4.26625 33.15703125 3.96875 32.5859375 C3.411875 31.49925781 3.411875 31.49925781 2.84375 30.390625 C2.4725 29.67132813 2.10125 28.95203125 1.71875 28.2109375 C0.84375 26.265625 0.84375 26.265625 0.84375 24.265625 C-0.20425781 24.30042969 -0.20425781 24.30042969 -1.2734375 24.3359375 C-2.18351562 24.35398437 -3.09359375 24.37203125 -4.03125 24.390625 C-4.93617188 24.41382812 -5.84109375 24.43703125 -6.7734375 24.4609375 C-9.15625 24.265625 -9.15625 24.265625 -11.15625 22.265625 C-9.92059297 0.02379854 -9.92059297 0.02379854 0 0 Z " fill="#23C8D6" transform="translate(511.15625,20.734375)"/>
<path d="M0 0 C3.50489936 0.66022523 6.09308478 2.08667414 9.125 3.9375 C9.99382813 4.46214844 10.86265625 4.98679688 11.7578125 5.52734375 C14 7 14 7 16 9 C15.77512758 14.58092455 14.05447176 18.16493447 11.0625 22.8125 C10.70220703 23.38419922 10.34191406 23.95589844 9.97070312 24.54492188 C8.45702494 26.91718732 6.99507915 29.00492085 5 31 C-1.18597973 30.83493574 -5.55485111 28.39126322 -10.8125 25.3125 C-11.99465088 24.63356689 -11.99465088 24.63356689 -13.20068359 23.94091797 C-14.76070444 23.04264635 -16.31809029 22.13978007 -17.87255859 21.23193359 C-19.69749443 20.17517135 -21.54410017 19.15598667 -23.39453125 18.14453125 C-24.29558594 17.64308594 -25.19664062 17.14164063 -26.125 16.625 C-26.89070312 16.20476562 -27.65640625 15.78453125 -28.4453125 15.3515625 C-28.95835937 14.90554687 -29.47140625 14.45953125 -30 14 C-30 12.68 -30 11.36 -30 10 C-25.22770437 5.22770437 -19.84302965 2.86502408 -13.1875 2.5625 C-3.35684144 2.9035334 5.45491856 8.59531885 14 13 C13.99748418 11.12505641 13.99748418 11.12505641 13 9 C10.82265284 7.44144738 8.75698179 6.11522265 6.4375 4.8125 C4.27512425 3.56488844 2.13377662 2.2968851 0 1 C0 0.67 0 0.34 0 0 Z " fill="#25C8D7" transform="translate(541,132)"/>
<path d="M0 0 C2.94311124 1.61434023 4.54732961 3.8829072 6.59765625 6.51953125 C9.63549497 10.43376849 9.63549497 10.43376849 12.97265625 14.08203125 C12.82942943 17.04620378 11.97942039 18.07502416 9.90625 20.22265625 C9.08253906 20.91875 8.25882813 21.61484375 7.41015625 22.33203125 C6.58386719 23.0384375 5.75757813 23.74484375 4.90625 24.47265625 C4.26816406 25.00375 3.63007812 25.53484375 2.97265625 26.08203125 C3.30265625 26.74203125 3.63265625 27.40203125 3.97265625 28.08203125 C5.95265625 27.42203125 7.93265625 26.76203125 9.97265625 26.08203125 C8.88985984 29.33042048 8.0822878 30.12485708 5.53515625 32.26953125 C4.91769531 32.79933594 4.30023437 33.32914062 3.6640625 33.875 C1.97265625 35.08203125 1.97265625 35.08203125 -0.02734375 35.08203125 C0.30265625 34.09203125 0.63265625 33.10203125 0.97265625 32.08203125 C1.63265625 32.08203125 2.29265625 32.08203125 2.97265625 32.08203125 C2.64265625 31.09203125 2.31265625 30.10203125 1.97265625 29.08203125 C-1.45440263 30.1591069 -3.03488498 31.09013808 -5.52734375 33.76953125 C-8.02734375 36.08203125 -8.02734375 36.08203125 -10.3203125 36.12109375 C-14.25415377 34.61113447 -16.22431029 31.98569456 -18.83984375 28.76953125 C-19.34193359 28.18751953 -19.84402344 27.60550781 -20.36132812 27.00585938 C-23.10940734 23.70442543 -24.02734375 22.50853787 -24.02734375 18.08203125 C-22.0078125 16.0390625 -22.0078125 16.0390625 -19.21484375 13.89453125 C-18.21710937 13.11980469 -17.219375 12.34507812 -16.19140625 11.546875 C-15.6696582 11.14581543 -15.14791016 10.74475586 -14.61035156 10.33154297 C-13.02861421 9.08303406 -11.50571504 7.78659684 -9.98828125 6.4609375 C-9.03179688 5.63464844 -8.0753125 4.80835938 -7.08984375 3.95703125 C-6.21457031 3.19132813 -5.33929687 2.425625 -4.4375 1.63671875 C-2.02734375 0.08203125 -2.02734375 0.08203125 0 0 Z " fill="#23C8D6" transform="translate(605.02734375,230.91796875)"/>
<path d="M0 0 C13.47145694 6.73572847 21.90082074 25.89282339 28 39 C18.61673821 45.6012897 12.53313943 44 0 44 C0 29.48 0 14.96 0 0 Z " fill="#CED0D0" transform="translate(404,138)"/>
<path d="M0 0 C6.56499678 0.28543464 11.90850513 2.83511818 17 7 C18.20227716 10.07505506 17.94417371 11.88422676 17 15 C16.9071875 16.11375 16.9071875 16.11375 16.8125 17.25 C15.362788 22.15671754 12.38155003 26.58904394 7.9296875 29.2265625 C6.54992636 29.85280095 5.16334578 30.46429042 3.76953125 31.05859375 C1.17251907 32.44022716 0.16867748 34.37047566 -1 37 C-4.29680965 36.34215037 -6.84117922 35.10579427 -9.75 33.4375 C-10.54921875 32.98246094 -11.3484375 32.52742188 -12.171875 32.05859375 C-12.77515625 31.70925781 -13.3784375 31.35992187 -14 31 C-13.67515625 30.47792969 -13.3503125 29.95585937 -13.015625 29.41796875 C-11.70456644 26.29664088 -11.79460318 23.69119055 -11.75 20.3125 C-11.3994572 14.21305535 -10.17456407 10.43447362 -6.66796875 5.4765625 C-5 4 -5 4 -1 4 C-0.67 2.68 -0.34 1.36 0 0 Z " fill="#23C8D7" transform="translate(234,355)"/>
<path d="M0 0 C4.72564497 3.93803747 9.11496191 8.04515378 13.3984375 12.4609375 C14.74997314 14.11548297 14.74997314 14.11548297 16 14 C16.061875 12.783125 16.12375 11.56625 16.1875 10.3125 C16.61917126 6.97739604 17.05944139 5.91783102 19.125 3.0625 C22.59968231 0.56979312 24.72860624 -0.0776617 29 0 C31.4375 1.5 31.4375 1.5 33 4 C33.58047366 7.9907564 33.40151834 10.21442063 31.5625 13.8125 C28.02333222 16.83374079 24.52621655 17.35201601 20 18 C20.58007812 18.67095703 20.58007812 18.67095703 21.171875 19.35546875 C24.18390075 22.8521026 27.14321031 26.37407463 30 30 C28.68 30.99 27.36 31.98 26 33 C22.7 29.7 19.4 26.4 16 23 C14.948125 23.9075 13.89625 24.815 12.8125 25.75 C9.92221882 28.22906231 6.99140521 30.64313529 4 33 C3.01 31.68 2.02 30.36 1 29 C4.465 25.535 4.465 25.535 8 22 C6.25381113 18.50762226 5.15526349 16.9509178 2.4375 14.375 C-1.92186691 10.22408515 -1.92186691 10.22408515 -2.1875 6.0625 C-2 3 -2 3 0 0 Z " fill="#27C9D7" transform="translate(235,27)"/>
<path d="M0 0 C2.72707292 5.36892481 4.92999129 9.83880773 4 16 C2.0625 19.25 2.0625 19.25 0 22 C-1.15811388 24.94729537 -1.15811388 24.94729537 -1 28 C1.64 28 4.28 28 7 28 C7 29.32 7 30.64 7 32 C0.565 34.475 0.565 34.475 -6 37 C-6 32 -6 32 -4.4375 30.4375 C-3.963125 29.963125 -3.48875 29.48875 -3 29 C-3.36959745 26.92235212 -3.36959745 26.92235212 -4 25 C-4.88751953 24.96132813 -4.88751953 24.96132813 -5.79296875 24.921875 C-11.03166882 24.54585085 -14.33928824 24.07907881 -18 20 C-22.15492399 13.53530995 -22.15492399 13.53530995 -21.79907227 10.00878906 C-21 8 -21 8 -19.17407227 6.81152344 C-18.39604248 6.49731445 -17.6180127 6.18310547 -16.81640625 5.859375 C-15.97142578 5.51132812 -15.12644531 5.16328125 -14.25585938 4.8046875 C-13.36705078 4.45664062 -12.47824219 4.10859375 -11.5625 3.75 C-10.67755859 3.38648438 -9.79261719 3.02296875 -8.88085938 2.6484375 C-2.34439615 0 -2.34439615 0 0 0 Z " fill="#24C8D7" transform="translate(90,293)"/>
<path d="M0 0 C4.75 0.75 4.75 0.75 7 3 C6.625 5.625 6.625 5.625 6 8 C5.01 8.33 4.02 8.66 3 9 C2.97291433 10.60407328 2.95356517 12.2082785 2.9375 13.8125 C2.92589844 14.70582031 2.91429687 15.59914063 2.90234375 16.51953125 C2.88990033 19.13413791 2.88990033 19.13413791 4 22 C2.7625 21.938125 1.525 21.87625 0.25 21.8125 C-5.6559162 21.8125 -11.47405015 22.90513914 -17 25 C-17.66 25.99 -18.32 26.98 -19 28 C-19.99 28 -20.98 28 -22 28 C-22.2475 27.2575 -22.495 26.515 -22.75 25.75 C-24.13269476 22.70807153 -25.43546845 21.12489757 -28 19 C-28.886875 18.71125 -29.77375 18.4225 -30.6875 18.125 C-31.450625 17.75375 -32.21375 17.3825 -33 17 C-33.9375 14 -33.9375 14 -34 11 C-33.34 10.34 -32.68 9.68 -32 9 C-27.94233489 9.15028389 -25.6991052 9.40844945 -22.5625 12.0625 C-22.046875 12.701875 -21.53125 13.34125 -21 14 C-20.071875 13.525625 -19.14375 13.05125 -18.1875 12.5625 C-13.31160838 10.43556786 -8.25466418 10.27556105 -3 10 C-3.061875 9.0925 -3.12375 8.185 -3.1875 7.25 C-2.98327924 3.71017358 -2.35448165 2.55068845 0 0 Z " fill="#25C8D7" transform="translate(693,424)"/>
<path d="M0 0 C5.61548474 0.33692908 9.65134928 2.77358145 14.375 5.5625 C15.11105469 5.98724609 15.84710937 6.41199219 16.60546875 6.84960938 C18.40839699 7.89156141 20.20487053 8.94466854 22 10 C21.46572808 14.62479134 20.24654175 17.80910692 17.875 21.80078125 C17.25109375 22.85974609 16.6271875 23.91871094 15.984375 25.00976562 C15.32953125 26.09966797 14.6746875 27.18957031 14 28.3125 C13.34515625 29.42173828 12.6903125 30.53097656 12.015625 31.67382812 C7.19666353 39.80333647 7.19666353 39.80333647 6 41 C2.20637413 41.32865471 0.02085887 40.78373061 -3.20703125 38.8125 C-3.95791016 38.36132812 -4.70878906 37.91015625 -5.48242188 37.4453125 C-6.25134766 36.96835938 -7.02027344 36.49140625 -7.8125 36 C-8.99489258 35.28457031 -8.99489258 35.28457031 -10.20117188 34.5546875 C-12.14029896 33.37945896 -14.07267607 32.19445162 -16 31 C-15.46572808 26.37520866 -14.24654175 23.19089308 -11.875 19.19921875 C-11.25109375 18.14025391 -10.6271875 17.08128906 -9.984375 15.99023438 C-9.32953125 14.90033203 -8.6746875 13.81042969 -8 12.6875 C-7.34515625 11.57826172 -6.6903125 10.46902344 -6.015625 9.32617188 C-1.19666353 1.19666353 -1.19666353 1.19666353 0 0 Z M-5 11 C-6.75389486 13.37133744 -8.25889316 15.65920371 -9.75 18.1875 C-10.38615234 19.19780273 -10.38615234 19.19780273 -11.03515625 20.22851562 C-12.76620994 23.11830395 -13.93326912 25.30539219 -14.2578125 28.68359375 C-12.2097787 32.45528332 -8.83497956 33.91354994 -5.125 35.875 C-4.02478516 36.49761719 -4.02478516 36.49761719 -2.90234375 37.1328125 C-0.02463745 38.73016203 -0.02463745 38.73016203 3 40 C6.40944605 38.86351798 6.60693771 38.46011714 8.26171875 35.47265625 C8.65810547 34.76302734 9.05449219 34.05339844 9.46289062 33.32226562 C10.06907227 32.20368164 10.06907227 32.20368164 10.6875 31.0625 C11.31108398 29.9497168 11.31108398 29.9497168 11.94726562 28.81445312 C14.20160489 25.1164424 14.20160489 25.1164424 15 21 C13.43550411 19.77033119 13.43550411 19.77033119 11.38671875 18.6171875 C10.63326172 18.17246094 9.87980469 17.72773438 9.10351562 17.26953125 C8.30623047 16.80933594 7.50894531 16.34914062 6.6875 15.875 C5.90181641 15.40707031 5.11613281 14.93914062 4.30664062 14.45703125 C-0.05002192 11.75403585 -0.05002192 11.75403585 -5 11 Z " fill="#40CFDC" transform="translate(685,124)"/>
<path d="M0 0 C0.65830811 -0.00191345 1.31661621 -0.0038269 1.99487305 -0.00579834 C3.3868854 -0.0071595 4.77891047 -0.00346783 6.17089844 0.00488281 C8.30432589 0.015584 10.43691131 0.00498594 12.5703125 -0.0078125 C13.92187686 -0.00649089 15.2734407 -0.00392847 16.625 0 C18.47544922 0.00338379 18.47544922 0.00338379 20.36328125 0.00683594 C23.3125 0.265625 23.3125 0.265625 25.3125 2.265625 C25.57128906 4.20507813 25.57128906 4.20507813 25.578125 6.546875 C25.58199219 7.80951172 25.58199219 7.80951172 25.5859375 9.09765625 C25.57820312 9.97808594 25.57046875 10.85851562 25.5625 11.765625 C25.57410156 13.08626953 25.57410156 13.08626953 25.5859375 14.43359375 C25.58335937 15.27535156 25.58078125 16.11710937 25.578125 16.984375 C25.57586914 17.75716797 25.57361328 18.52996094 25.57128906 19.32617188 C25.3125 21.265625 25.3125 21.265625 23.3125 23.265625 C22.3225 23.265625 21.3325 23.265625 20.3125 23.265625 C19.9825 24.915625 19.6525 26.565625 19.3125 28.265625 C15.85418414 28.29457047 12.39589928 28.312405 8.9375 28.328125 C7.95265625 28.33650391 6.9678125 28.34488281 5.953125 28.35351562 C4.54160156 28.35834961 4.54160156 28.35834961 3.1015625 28.36328125 C1.79759521 28.37113647 1.79759521 28.37113647 0.46728516 28.37915039 C-1.6875 28.265625 -1.6875 28.265625 -3.6875 27.265625 C-3.6875 25.945625 -3.6875 24.625625 -3.6875 23.265625 C-4.326875 23.12125 -4.96625 22.976875 -5.625 22.828125 C-7.6875 22.265625 -7.6875 22.265625 -8.6875 21.265625 C-8.93716567 18.1273905 -8.87271791 14.97512887 -8.875 11.828125 C-8.88724609 10.94318359 -8.89949219 10.05824219 -8.91210938 9.14648438 C-8.91404297 8.30021484 -8.91597656 7.45394531 -8.91796875 6.58203125 C-8.92207764 5.80287354 -8.92618652 5.02371582 -8.93041992 4.22094727 C-8.29939639 -0.85831654 -4.09273316 0.0074841 0 0 Z M-6.6875 2.265625 C-6.77401611 3.68132623 -6.79454904 5.10122 -6.78515625 6.51953125 C-6.78193359 7.37353516 -6.77871094 8.22753906 -6.77539062 9.10742188 C-6.76701172 10.00525391 -6.75863281 10.90308594 -6.75 11.828125 C-6.74548828 12.72982422 -6.74097656 13.63152344 -6.73632812 14.56054688 C-6.72450225 16.79563814 -6.7080222 19.03059937 -6.6875 21.265625 C-5.6975 21.265625 -4.7075 21.265625 -3.6875 21.265625 C-3.3575 20.275625 -3.0275 19.285625 -2.6875 18.265625 C4.5725 18.265625 11.8325 18.265625 19.3125 18.265625 C19.6425 19.255625 19.9725 20.245625 20.3125 21.265625 C21.3025 21.265625 22.2925 21.265625 23.3125 21.265625 C23.34138514 18.11981077 23.35925923 14.97403031 23.375 11.828125 C23.38337891 10.93029297 23.39175781 10.03246094 23.40039062 9.10742188 C23.40361328 8.25341797 23.40683594 7.39941406 23.41015625 6.51953125 C23.41539307 5.72877197 23.42062988 4.9380127 23.42602539 4.12329102 C23.51745909 2.24969811 23.51745909 2.24969811 22.3125 1.265625 C20.2519469 1.16568968 18.1879741 1.13481594 16.125 1.1328125 C14.86945312 1.13152344 13.61390625 1.13023437 12.3203125 1.12890625 C11.33466309 1.13204834 11.33466309 1.13204834 10.32910156 1.13525391 C8.32088665 1.14060266 6.31289541 1.13530809 4.3046875 1.12890625 C3.04914062 1.13019531 1.79359375 1.13148438 0.5 1.1328125 C-0.66144531 1.13394043 -1.82289063 1.13506836 -3.01953125 1.13623047 C-5.60813284 0.96225026 -5.60813284 0.96225026 -6.6875 2.265625 Z " fill="#57D5E0" transform="translate(591.6875,347.734375)"/>
<path d="M0 0 C2.75984517 1.31892865 3.56096631 3.01948139 5.06762695 5.66088867 C5.62772461 6.62768555 6.18782227 7.59448242 6.76489258 8.59057617 C7.33788086 9.60893555 7.91086914 10.62729492 8.5012207 11.67651367 C9.07807617 12.6794043 9.65493164 13.68229492 10.24926758 14.71557617 C11.32814059 16.59209348 12.40172206 18.47167017 13.46826172 20.35522461 C14.91942483 22.96889549 14.91942483 22.96889549 16.68847656 25.50561523 C17.9387207 27.92651367 17.9387207 27.92651367 17.84228516 30.08935547 C16.71575009 32.37986515 15.69280697 33.06801334 13.48168945 34.32104492 C12.78108398 34.7187207 12.08047852 35.11639648 11.35864258 35.52612305 C10.25359375 36.12650391 10.25359375 36.12650391 9.1262207 36.73901367 C8.40112305 37.15860352 7.67602539 37.57819336 6.92895508 38.01049805 C1.64358202 40.94574182 1.64358202 40.94574182 -1.07495117 40.87158203 C-4.06174112 39.45050732 -5.02088849 37.35467354 -6.69799805 34.53588867 C-7.35735352 33.43374023 -8.01670898 32.3315918 -8.69604492 31.19604492 C-9.03289307 30.61806152 -9.36974121 30.04007812 -9.71679688 29.44458008 C-10.74186721 27.68835595 -11.78737926 25.94569471 -12.83666992 24.20385742 C-18.37316073 14.85116203 -18.37316073 14.85116203 -19.0612793 9.92651367 C-16.32341369 8.21869633 -13.5693201 6.53901894 -10.8112793 4.86401367 C-10.03397461 4.37868164 -9.25666992 3.89334961 -8.45581055 3.39331055 C-7.3246582 2.71171875 -7.3246582 2.71171875 -6.1706543 2.01635742 C-5.13376465 1.38008423 -5.13376465 1.38008423 -4.07592773 0.73095703 C-2.0612793 -0.07348633 -2.0612793 -0.07348633 0 0 Z M-7.3112793 9.86401367 C-7.9609668 10.25008789 -8.6106543 10.63616211 -9.2800293 11.03393555 C-10.88040058 11.98709786 -12.4717535 12.95537291 -14.0612793 13.92651367 C-14.0612793 17.76548969 -13.92813022 18.66637719 -12.1628418 21.78198242 C-11.76581055 22.48645508 -11.3687793 23.19092773 -10.9597168 23.91674805 C-10.53948242 24.6418457 -10.11924805 25.36694336 -9.6862793 26.11401367 C-9.2737793 26.85071289 -8.8612793 27.58741211 -8.4362793 28.34643555 C-6.4162506 32.29946089 -6.4162506 32.29946089 -3.0612793 34.92651367 C-1.27568595 34.21834339 -1.27568595 34.21834339 0.6340332 33.05541992 C1.34946289 32.64614258 2.06489258 32.23686523 2.80200195 31.81518555 C3.54836914 31.37754883 4.29473633 30.93991211 5.0637207 30.48901367 C5.81782227 30.05524414 6.57192383 29.62147461 7.34887695 29.17456055 C9.21629204 28.09902401 11.07804768 27.01367229 12.9387207 25.92651367 C12.9387207 21.52332343 10.80744183 18.58067456 8.6887207 14.80151367 C8.29297852 14.06030273 7.89723633 13.3190918 7.48950195 12.55541992 C7.09633789 11.85030273 6.70317383 11.14518555 6.2980957 10.41870117 C5.94199219 9.77271973 5.58588867 9.12673828 5.21899414 8.46118164 C4.0211361 6.78823882 4.0211361 6.78823882 2.00708008 6.10498047 C-1.58581754 5.79497006 -4.35258471 8.04489759 -7.3112793 9.86401367 Z " fill="#59D5E1" transform="translate(713.061279296875,272.073486328125)"/>
<path d="M0 0 C-1.6109008 5.25881163 -4.96297816 9.122111 -8.3125 13.375 C-9.45549579 14.84031283 -10.59743617 16.30644957 -11.73828125 17.7734375 C-12.29016113 18.47984375 -12.84204102 19.18625 -13.41064453 19.9140625 C-14.91956647 21.89443562 -16.34681032 23.91280901 -17.76171875 25.9609375 C-20 29 -20 29 -22.5 30.25 C-26.26212232 29.87378777 -27.4919344 27.74800012 -30 25 C-31.49171878 23.01885167 -32.93026808 20.99653097 -34.3125 18.9375 C-35.00988281 17.91527344 -35.70726562 16.89304688 -36.42578125 15.83984375 C-38 13 -38 13 -38 9 C-33.5852196 9.77083467 -30.79752685 12.23599235 -27.31640625 14.91796875 C-25.07026765 16.23935047 -25.07026765 16.23935047 -22.7265625 15.5859375 C-18.74732433 13.2713663 -15.32977032 10.39455351 -11.8125 7.4375 C-10.38280151 6.24714551 -8.95187026 5.05826962 -7.51953125 3.87109375 C-6.89151611 3.34443115 -6.26350098 2.81776855 -5.61645508 2.27514648 C-3.64845167 0.72267982 -2.53434464 0 0 0 Z " fill="#F6FCFC" transform="translate(426,215)"/>
<path d="M0 0 C3.63 0 7.26 0 11 0 C11.02465504 4.39656173 11.04283842 8.7930872 11.05493164 13.18969727 C11.05997121 14.68644918 11.06680287 16.18319616 11.07543945 17.67993164 C11.08752159 19.82699807 11.09323191 21.97399962 11.09765625 24.12109375 C11.10289307 25.4145874 11.10812988 26.70808105 11.11352539 28.04077148 C11 31 11 31 10 32 C6.7 32 3.4 32 0 32 C0 21.44 0 10.88 0 0 Z " fill="#25C8D7" transform="translate(193,240)"/>
<path d="M0 0 C0.78503906 0.00322266 1.57007813 0.00644531 2.37890625 0.00976562 C3.16394531 -0.00634766 3.94898438 -0.02246094 4.7578125 -0.0390625 C7.03515625 -0.04101562 7.03515625 -0.04101562 10.87890625 0.32226562 C11.53890625 1.31226563 12.19890625 2.30226563 12.87890625 3.32226562 C12.42515625 3.67289062 11.97140625 4.02351563 11.50390625 4.38476562 C9.23229291 7.09322768 8.71091771 9.93021891 7.87890625 13.32226562 C5.15624125 13.82125939 2.43333122 14.31607175 -0.29296875 14.79492188 C-2.37693773 15.18350725 -4.4440487 15.66525395 -6.49609375 16.19726562 C-9.12109375 16.32226562 -9.12109375 16.32226562 -11.74609375 14.50976562 C-12.52984375 13.78789062 -13.31359375 13.06601562 -14.12109375 12.32226562 C-15.43248279 11.61340668 -16.75886392 10.9277011 -18.12109375 10.32226562 C-15.00012435 6.22042012 -13.12672967 3.94571511 -8.12109375 2.32226562 C-5.50149751 -0.29733062 -3.57255582 0.03370336 0 0 Z " fill="#24C8D7" transform="translate(680.12109375,419.677734375)"/>
<path d="M0 0 C3.50489936 0.66022523 6.09308478 2.08667414 9.125 3.9375 C9.99382813 4.46214844 10.86265625 4.98679688 11.7578125 5.52734375 C14 7 14 7 16 9 C15.77512758 14.58092455 14.05447176 18.16493447 11.0625 22.8125 C10.70220703 23.38419922 10.34191406 23.95589844 9.97070312 24.54492188 C8.45702494 26.91718732 6.99507915 29.00492085 5 31 C-1.18597973 30.83493574 -5.55485111 28.39126322 -10.8125 25.3125 C-11.99465088 24.63356689 -11.99465088 24.63356689 -13.20068359 23.94091797 C-14.76070444 23.04264635 -16.31809029 22.13978007 -17.87255859 21.23193359 C-19.69749443 20.17517135 -21.54410017 19.15598667 -23.39453125 18.14453125 C-24.29558594 17.64308594 -25.19664062 17.14164063 -26.125 16.625 C-26.89070312 16.20476562 -27.65640625 15.78453125 -28.4453125 15.3515625 C-28.95835937 14.90554687 -29.47140625 14.45953125 -30 14 C-30 12.68 -30 11.36 -30 10 C-25.22770437 5.22770437 -19.84302965 2.86502408 -13.1875 2.5625 C-3.35684144 2.9035334 5.45491856 8.59531885 14 13 C13.99748418 11.12505641 13.99748418 11.12505641 13 9 C10.82265284 7.44144738 8.75698179 6.11522265 6.4375 4.8125 C4.27512425 3.56488844 2.13377662 2.2968851 0 1 C0 0.67 0 0.34 0 0 Z M-27 9 C-27 9.66 -27 10.32 -27 11 C-26.19780029 11.4439209 -25.39560059 11.8878418 -24.5690918 12.34521484 C-21.58853943 13.99539098 -18.60863125 15.64671868 -15.62915039 17.29882812 C-14.34034381 18.01315724 -13.05128338 18.72702857 -11.76196289 19.44042969 C-9.9070423 20.46689056 -8.05304567 21.49500304 -6.19921875 22.5234375 C-5.08377686 23.14138184 -3.96833496 23.75932617 -2.8190918 24.39599609 C-0.83603204 25.52431536 1.10160648 26.73440432 3 28 C3.99 28 4.98 28 6 28 C7.93339429 25.31377838 7.93339429 25.31377838 9.6875 22 C10.31011719 20.88625 10.93273437 19.7725 11.57421875 18.625 C12.04472656 17.75875 12.51523437 16.8925 13 16 C9.63864575 13.18768728 6.29086391 10.89728242 2.4375 8.8125 C1.50808594 8.30332031 0.57867188 7.79414063 -0.37890625 7.26953125 C-9.31700372 2.94034842 -18.53239258 4.31668133 -27 9 Z " fill="#53D4DF" transform="translate(541,132)"/>
<path d="M0 0 C6.56499678 0.28543464 11.90850513 2.83511818 17 7 C18.20227716 10.07505506 17.94417371 11.88422676 17 15 C16.9071875 16.11375 16.9071875 16.11375 16.8125 17.25 C15.362788 22.15671754 12.38155003 26.58904394 7.9296875 29.2265625 C6.54992636 29.85280095 5.16334578 30.46429042 3.76953125 31.05859375 C1.17251907 32.44022716 0.16867748 34.37047566 -1 37 C-4.29680965 36.34215037 -6.84117922 35.10579427 -9.75 33.4375 C-10.54921875 32.98246094 -11.3484375 32.52742188 -12.171875 32.05859375 C-12.77515625 31.70925781 -13.3784375 31.35992187 -14 31 C-13.67515625 30.47792969 -13.3503125 29.95585937 -13.015625 29.41796875 C-11.70456644 26.29664088 -11.79460318 23.69119055 -11.75 20.3125 C-11.3994572 14.21305535 -10.17456407 10.43447362 -6.66796875 5.4765625 C-5 4 -5 4 -1 4 C-0.67 2.68 -0.34 1.36 0 0 Z M-4 6 C-9.0687503 11.31600641 -9.6188064 15.67982094 -9.859375 22.9140625 C-9.98741502 25.72382961 -10.36965359 28.26510995 -11 31 C-7.60569051 33.22000342 -7.60569051 33.22000342 -4 35 C-1.19804062 34.35955214 -0.1712305 33.177135 1.8125 31.125 C4 29 4 29 7.5 27.1875 C11.65859239 24.92895413 13.12218861 22.30331776 15 18 C13.86351798 14.59055395 13.46011714 14.39306229 10.47265625 12.73828125 C9.76302734 12.34189453 9.05339844 11.94550781 8.32226562 11.53710938 C7.20368164 10.93092773 7.20368164 10.93092773 6.0625 10.3125 C5.32064453 9.89677734 4.57878906 9.48105469 3.81445312 9.05273438 C0.1164424 6.79839511 0.1164424 6.79839511 -4 6 Z " fill="#56D4E0" transform="translate(234,355)"/>
<path d="M0 0 C1.07507813 -0.00128906 2.15015625 -0.00257813 3.2578125 -0.00390625 C4.38960937 -0.00003906 5.52140625 0.00382813 6.6875 0.0078125 C7.81929687 0.00394531 8.95109375 0.00007812 10.1171875 -0.00390625 C11.19226563 -0.00261719 12.26734375 -0.00132812 13.375 0 C14.86580078 0.00169189 14.86580078 0.00169189 16.38671875 0.00341797 C18.6875 0.1328125 18.6875 0.1328125 19.6875 1.1328125 C19.77593793 3.58111676 19.80278752 6.00101849 19.78515625 8.44921875 C19.7837413 9.18027328 19.78232635 9.91132782 19.78086853 10.66453552 C19.77525408 13.00816882 19.76269922 15.35170789 19.75 17.6953125 C19.74498686 19.28059758 19.74042363 20.86588416 19.73632812 22.45117188 C19.72527997 26.3450886 19.70800572 30.23893455 19.6875 34.1328125 C18.2025 34.6278125 18.2025 34.6278125 16.6875 35.1328125 C16.6875 36.1228125 16.6875 37.1128125 16.6875 38.1328125 C16.0275 38.1328125 15.3675 38.1328125 14.6875 38.1328125 C14.6875 37.1428125 14.6875 36.1528125 14.6875 35.1328125 C14.0275 35.1328125 13.3675 35.1328125 12.6875 35.1328125 C13.0175 36.1228125 13.3475 37.1128125 13.6875 38.1328125 C13.0275 38.1328125 12.3675 38.1328125 11.6875 38.1328125 C11.6875 37.1428125 11.6875 36.1528125 11.6875 35.1328125 C8.3875 35.1328125 5.0875 35.1328125 1.6875 35.1328125 C1.6875 36.4528125 1.6875 37.7728125 1.6875 39.1328125 C0.0375 38.8028125 -1.6125 38.4728125 -3.3125 38.1328125 C-3.3125 37.1428125 -3.3125 36.1528125 -3.3125 35.1328125 C-4.3025 34.8028125 -5.2925 34.4728125 -6.3125 34.1328125 C-6.33715288 29.45141996 -6.35533739 24.77006491 -6.36743164 20.08862305 C-6.37247157 18.49486636 -6.3793035 16.90111431 -6.38793945 15.30737305 C-6.40001999 13.02130997 -6.40573155 10.73530783 -6.41015625 8.44921875 C-6.41531754 7.73254532 -6.42047882 7.01587189 -6.42579651 6.27748108 C-6.42599263 4.56217578 -6.37442007 2.84699984 -6.3125 1.1328125 C-4.59682208 -0.58286542 -2.33877265 0.00265425 0 0 Z M-5.3125 2.1328125 C-5.33715504 6.52937423 -5.35533842 10.9258997 -5.36743164 15.32250977 C-5.37247121 16.81926168 -5.37930287 18.31600866 -5.38793945 19.81274414 C-5.40002159 21.95981057 -5.40573191 24.10681212 -5.41015625 26.25390625 C-5.41539307 27.5473999 -5.42062988 28.84089355 -5.42602539 30.17358398 C-5.65246932 33.01933654 -5.65246932 33.01933654 -4.3125 34.1328125 C-1.0125 34.1328125 2.2875 34.1328125 5.6875 34.1328125 C5.6875 23.5728125 5.6875 13.0128125 5.6875 2.1328125 C2.0575 2.1328125 -1.5725 2.1328125 -5.3125 2.1328125 Z M7.6875 2.1328125 C7.6875 12.6928125 7.6875 23.2528125 7.6875 34.1328125 C10.9875 34.1328125 14.2875 34.1328125 17.6875 34.1328125 C19.02746932 33.01933654 19.02746932 33.01933654 18.80102539 30.17358398 C18.79578857 28.88009033 18.79055176 27.58659668 18.78515625 26.25390625 C18.7837413 25.5672438 18.78232635 24.88058136 18.78086853 24.17311096 C18.77525479 21.97213449 18.76270007 19.77125841 18.75 17.5703125 C18.74498676 16.08138167 18.74042355 14.59244926 18.73632812 13.10351562 C18.72528093 9.44658175 18.70800713 5.78970692 18.6875 2.1328125 C15.0575 2.1328125 11.4275 2.1328125 7.6875 2.1328125 Z " fill="#60D8E2" transform="translate(185.3125,237.8671875)"/>
<path d="M0 0 C3.38677089 2.45000447 4.78698584 3.86392446 5.5625 8 C4.84202557 11.8425303 3.99097304 13.45767292 1 16 C-1.79985377 16.6598016 -4.19465409 16.61636963 -7 16 C-10.06458538 13.95694308 -10.82153128 12.55920198 -11.9375 9.0625 C-12.01221891 5.40127319 -11.21363944 3.8695326 -9 1 C-5.86128812 -0.56935594 -3.46144178 -0.35201103 0 0 Z " fill="#4FD3DF" transform="translate(114,140)"/>
<path d="M0 0 C4.75 0.75 4.75 0.75 7 3 C6.625 5.625 6.625 5.625 6 8 C5.01 8.33 4.02 8.66 3 9 C2.97291433 10.60407328 2.95356517 12.2082785 2.9375 13.8125 C2.92589844 14.70582031 2.91429687 15.59914063 2.90234375 16.51953125 C2.88990033 19.13413791 2.88990033 19.13413791 4 22 C2.7625 21.938125 1.525 21.87625 0.25 21.8125 C-5.6559162 21.8125 -11.47405015 22.90513914 -17 25 C-17.66 25.99 -18.32 26.98 -19 28 C-19.99 28 -20.98 28 -22 28 C-22.2475 27.2575 -22.495 26.515 -22.75 25.75 C-24.13269476 22.70807153 -25.43546845 21.12489757 -28 19 C-28.886875 18.71125 -29.77375 18.4225 -30.6875 18.125 C-31.450625 17.75375 -32.21375 17.3825 -33 17 C-33.9375 14 -33.9375 14 -34 11 C-33.34 10.34 -32.68 9.68 -32 9 C-27.94233489 9.15028389 -25.6991052 9.40844945 -22.5625 12.0625 C-22.046875 12.701875 -21.53125 13.34125 -21 14 C-20.071875 13.525625 -19.14375 13.05125 -18.1875 12.5625 C-13.31160838 10.43556786 -8.25466418 10.27556105 -3 10 C-3.061875 9.0925 -3.12375 8.185 -3.1875 7.25 C-2.98327924 3.71017358 -2.35448165 2.55068845 0 0 Z M0 2 C-1.31626692 5.61973402 -2 8.09567131 -2 12 C-3.258125 11.9175 -4.51625 11.835 -5.8125 11.75 C-11.69652965 11.7125221 -16.6371049 13.75460093 -22 16 C-22.38671875 15.55527344 -22.7734375 15.11054688 -23.171875 14.65234375 C-23.69265625 14.08644531 -24.2134375 13.52054687 -24.75 12.9375 C-25.51570312 12.08478516 -25.51570312 12.08478516 -26.296875 11.21484375 C-27.95687258 9.73501743 -27.95687258 9.73501743 -30.203125 10.31640625 C-30.79609375 10.54199219 -31.3890625 10.76757812 -32 11 C-31.89386164 13.45224694 -31.89386164 13.45224694 -31 16 C-29.3523962 16.71247732 -27.68236471 17.37400383 -26 18 C-23.53871837 20.66638844 -22.14989015 22.55032955 -21 26 C-20.34 26 -19.68 26 -19 26 C-19 25.01 -19 24.02 -19 23 C-12.68027076 21.80343362 -6.39205856 20.72362927 0 20 C0.66 16.04 1.32 12.08 2 8 C2.99 7.67 3.98 7.34 5 7 C4.505 4.525 4.505 4.525 4 2 C2.68 2 1.36 2 0 2 Z " fill="#57D5E0" transform="translate(693,424)"/>
<path d="M0 0 C2.72707292 5.36892481 4.92999129 9.83880773 4 16 C2.0625 19.25 2.0625 19.25 0 22 C-1.15811388 24.94729537 -1.15811388 24.94729537 -1 28 C1.64 28 4.28 28 7 28 C7 29.32 7 30.64 7 32 C0.565 34.475 0.565 34.475 -6 37 C-6 32 -6 32 -4.4375 30.4375 C-3.963125 29.963125 -3.48875 29.48875 -3 29 C-3.36959745 26.92235212 -3.36959745 26.92235212 -4 25 C-4.88751953 24.96132813 -4.88751953 24.96132813 -5.79296875 24.921875 C-11.03166882 24.54585085 -14.33928824 24.07907881 -18 20 C-22.15492399 13.53530995 -22.15492399 13.53530995 -21.79907227 10.00878906 C-21 8 -21 8 -19.17407227 6.81152344 C-18.39604248 6.49731445 -17.6180127 6.18310547 -16.81640625 5.859375 C-15.97142578 5.51132812 -15.12644531 5.16328125 -14.25585938 4.8046875 C-13.36705078 4.45664062 -12.47824219 4.10859375 -11.5625 3.75 C-10.67755859 3.38648438 -9.79261719 3.02296875 -8.88085938 2.6484375 C-2.34439615 0 -2.34439615 0 0 0 Z M-11.0625 5.3125 C-11.80822266 5.62123047 -12.55394531 5.92996094 -13.32226562 6.24804688 C-15.25338231 7.08118078 -17.13186915 8.0338681 -19 9 C-20.15089256 12.45267768 -19.91927358 12.88787615 -18.375 16 C-16.46233907 19.56331352 -14.88892594 21.5185044 -11 23 C-6.92560787 23.60682436 -5.30991106 23.17542136 -1.6875 21.125 C1.03696671 19.27958729 1.03696671 19.27958729 2 17 C2.40623948 11.00796768 1.67900576 7.35801152 -1 2 C-4.58565248 2 -7.81075664 3.9084023 -11.0625 5.3125 Z " fill="#5AD5E1" transform="translate(90,293)"/>
<path d="M0 0 C2.94311124 1.61434023 4.54732961 3.8829072 6.59765625 6.51953125 C9.63549497 10.43376849 9.63549497 10.43376849 12.97265625 14.08203125 C12.82942943 17.04620378 11.97942039 18.07502416 9.90625 20.22265625 C9.08253906 20.91875 8.25882813 21.61484375 7.41015625 22.33203125 C6.58386719 23.0384375 5.75757813 23.74484375 4.90625 24.47265625 C4.26816406 25.00375 3.63007812 25.53484375 2.97265625 26.08203125 C3.30265625 26.74203125 3.63265625 27.40203125 3.97265625 28.08203125 C5.95265625 27.42203125 7.93265625 26.76203125 9.97265625 26.08203125 C8.88985984 29.33042048 8.0822878 30.12485708 5.53515625 32.26953125 C4.91769531 32.79933594 4.30023437 33.32914062 3.6640625 33.875 C1.97265625 35.08203125 1.97265625 35.08203125 -0.02734375 35.08203125 C0.30265625 34.09203125 0.63265625 33.10203125 0.97265625 32.08203125 C1.63265625 32.08203125 2.29265625 32.08203125 2.97265625 32.08203125 C2.64265625 31.09203125 2.31265625 30.10203125 1.97265625 29.08203125 C-1.45440263 30.1591069 -3.03488498 31.09013808 -5.52734375 33.76953125 C-8.02734375 36.08203125 -8.02734375 36.08203125 -10.3203125 36.12109375 C-14.25415377 34.61113447 -16.22431029 31.98569456 -18.83984375 28.76953125 C-19.34193359 28.18751953 -19.84402344 27.60550781 -20.36132812 27.00585938 C-23.10940734 23.70442543 -24.02734375 22.50853787 -24.02734375 18.08203125 C-22.0078125 16.0390625 -22.0078125 16.0390625 -19.21484375 13.89453125 C-18.21710937 13.11980469 -17.219375 12.34507812 -16.19140625 11.546875 C-15.6696582 11.14581543 -15.14791016 10.74475586 -14.61035156 10.33154297 C-13.02861421 9.08303406 -11.50571504 7.78659684 -9.98828125 6.4609375 C-9.03179688 5.63464844 -8.0753125 4.80835938 -7.08984375 3.95703125 C-6.21457031 3.19132813 -5.33929687 2.425625 -4.4375 1.63671875 C-2.02734375 0.08203125 -2.02734375 0.08203125 0 0 Z M-8.77734375 7.76953125 C-10.00097146 8.83631685 -11.22492691 9.90272665 -12.44921875 10.96875 C-13.34157227 11.74871338 -13.34157227 11.74871338 -14.25195312 12.54443359 C-16.81255313 14.76207095 -19.41659365 16.92375778 -22.02734375 19.08203125 C-21.54777142 23.36757121 -18.80862155 25.8513453 -15.96484375 28.83203125 C-15.49240234 29.33863281 -15.01996094 29.84523438 -14.53320312 30.3671875 C-13.37103664 31.61152738 -12.20004214 32.84761189 -11.02734375 34.08203125 C-6.61116726 32.65256363 -3.94275441 30.44171765 -0.58984375 27.26953125 C3.18163139 23.74778892 6.96548054 20.33109264 10.97265625 17.08203125 C10.47739715 12.83695323 7.83267243 10.3218031 5.03515625 7.33203125 C4.57947266 6.82542969 4.12378906 6.31882813 3.65429688 5.796875 C2.47358922 4.51417357 1.22713813 3.29267932 -0.02734375 2.08203125 C-3.64293828 2.08203125 -6.16176035 5.46468348 -8.77734375 7.76953125 Z " fill="#58D5E0" transform="translate(605.02734375,230.91796875)"/>
<path d="M0 0 C0.66 0 1.32 0 2 0 C1.40199745 3.82859106 0.25098656 6.77235864 -1.5625 10.1875 C-3.42385402 13.43050274 -3.42385402 13.43050274 -4 17 C-2.52273664 18.18823357 -1.04120618 19.37342256 0.4921875 20.48828125 C2.43261351 22.43373427 3.11229662 24.42738388 4 27 C4.74765625 26.98839844 5.4953125 26.97679687 6.265625 26.96484375 C7.25046875 26.95582031 8.2353125 26.94679687 9.25 26.9375 C10.71179688 26.92009766 10.71179688 26.92009766 12.203125 26.90234375 C14.65758678 26.98804423 16.66168914 27.29293934 19 28 C19.226875 27.195625 19.45375 26.39125 19.6875 25.5625 C21.33631588 21.08714261 23.60544412 17.11278682 26 13 C26.99 13 27.98 13 29 13 C28.39733215 17.50727647 26.63400206 20.8587963 24.4375 24.8125 C24.10814453 25.40998047 23.77878906 26.00746094 23.43945312 26.62304688 C22.63226733 28.08533998 21.81695083 29.5431399 21 31 C5.18723347 30.62472399 5.18723347 30.62472399 -0.12890625 26.67578125 C-2.26771823 24.20575292 -4.14409049 21.68444053 -6 19 C-6.66 18.67 -7.32 18.34 -8 18 C-7.39733215 13.49272353 -5.63400206 10.1412037 -3.4375 6.1875 C-2.9434668 5.2912793 -2.9434668 5.2912793 -2.43945312 4.37695312 C-1.63226733 2.91466002 -0.81695083 1.4568601 0 0 Z " fill="#27C9D7" transform="translate(255,135)"/>
<path d="M0 0 C1.87278712 0.23835472 3.74503805 0.48222277 5.61328125 0.75390625 C8.1530173 1.01577756 10.57482267 0.96373537 13.125 0.875 C18.4697144 0.85865531 21.68341558 1.8702369 25.6953125 5.55859375 C30.10120437 10.48704488 30.73401726 14.72038235 30.40625 21.2265625 C29.90979653 24.61581213 28.81015602 27.10375037 27 30 C26.31363375 32.23525035 26.31363375 32.23525035 26 34 C26 33.01 26 32.02 26 31 C25.01 31.99 24.02 32.98 23 34 C23.66 34.66 24.32 35.32 25 36 C24.2575 35.835 23.515 35.67 22.75 35.5 C19.35909288 35.04787905 16.40345395 35.0647386 13 35.1875 C7.7835737 35.22623584 4.95104565 34.65471722 1 31 C-2.99215455 26.57626118 -4.14744078 23.46722906 -4.1875 17.5625 C-4.20167969 16.61503906 -4.21585937 15.66757812 -4.23046875 14.69140625 C-3.99218921 11.90878582 -3.31486383 10.41894797 -2 8 C-1.64456573 5.66993089 -1.3086247 3.33672984 -1 1 C-0.67 0.67 -0.34 0.34 0 0 Z M-2 10.875 C-3.53188448 15.662139 -4.06238731 19.55607199 -2.05078125 24.18359375 C0.30937481 28.2412753 2.49746974 31.29904413 7 33 C11.82594324 34.02834697 15.67120076 34.46754047 20.375 32.8125 C24.68632652 29.83563169 27.75203109 27.21877907 29 22 C29.094427 15.73634207 28.39347739 10.73143719 24 6 C19.74917037 2.98389029 15.27827324 1.19395138 10.01953125 1.484375 C4.74389393 2.83134623 1.02817868 6.52199314 -2 10.875 Z " fill="#58D5E0" transform="translate(119,429)"/>
<path d="M0 0 C1.53333984 -0.00386719 1.53333984 -0.00386719 3.09765625 -0.0078125 C4.16886719 -0.00007813 5.24007812 0.00765625 6.34375 0.015625 C7.41496094 0.00789063 8.48617187 0.00015625 9.58984375 -0.0078125 C10.61207031 -0.00523438 11.63429688 -0.00265625 12.6875 0 C13.62787109 0.00225586 14.56824219 0.00451172 15.53710938 0.00683594 C17.84375 0.265625 17.84375 0.265625 19.84375 2.265625 C20.66248828 4.87227937 21.37823322 7.43069596 22.03125 10.078125 C22.22138672 10.79033203 22.41152344 11.50253906 22.60742188 12.23632812 C23.69188839 16.562189 23.746156 18.75359502 22.84375 23.265625 C19.21375 23.265625 15.58375 23.265625 11.84375 23.265625 C11.84375 22.935625 11.84375 22.605625 11.84375 22.265625 C15.14375 22.265625 18.44375 22.265625 21.84375 22.265625 C20.19375 15.665625 18.54375 9.065625 16.84375 2.265625 C9.91375 2.265625 2.98375 2.265625 -4.15625 2.265625 C-5.80625 8.865625 -7.45625 15.465625 -9.15625 22.265625 C-2.88625 22.265625 3.38375 22.265625 9.84375 22.265625 C9.84375 22.595625 9.84375 22.925625 9.84375 23.265625 C7.53375 23.265625 5.22375 23.265625 2.84375 23.265625 C3.33875 24.35875 3.83375 25.451875 4.34375 26.578125 C5.84375 30.265625 5.84375 30.265625 5.84375 33.265625 C8.48375 33.595625 11.12375 33.925625 13.84375 34.265625 C13.84375 34.595625 13.84375 34.925625 13.84375 35.265625 C9.22375 35.265625 4.60375 35.265625 -0.15625 35.265625 C-0.15625 34.935625 -0.15625 34.605625 -0.15625 34.265625 C1.49375 34.265625 3.14375 34.265625 4.84375 34.265625 C4.555 33.71132813 4.26625 33.15703125 3.96875 32.5859375 C3.411875 31.49925781 3.411875 31.49925781 2.84375 30.390625 C2.4725 29.67132813 2.10125 28.95203125 1.71875 28.2109375 C0.84375 26.265625 0.84375 26.265625 0.84375 24.265625 C-0.20425781 24.30042969 -0.20425781 24.30042969 -1.2734375 24.3359375 C-2.18351562 24.35398437 -3.09359375 24.37203125 -4.03125 24.390625 C-4.93617188 24.41382812 -5.84109375 24.43703125 -6.7734375 24.4609375 C-9.15625 24.265625 -9.15625 24.265625 -11.15625 22.265625 C-9.92059297 0.02379854 -9.92059297 0.02379854 0 0 Z " fill="#5BD6E1" transform="translate(511.15625,20.734375)"/>
<path d="M0 0 C0.41362793 0.74161377 0.82725586 1.48322754 1.25341797 2.24731445 C2.79182082 5.00421358 4.331328 7.76049217 5.87158203 10.51635742 C6.53738882 11.70816778 7.20275769 12.9002229 7.86767578 14.0925293 C8.82468742 15.80842684 9.78341652 17.52336614 10.7421875 19.23828125 C11.3182373 20.26993408 11.89428711 21.30158691 12.48779297 22.36450195 C13.58938152 24.2843677 14.77219623 26.15829434 16 28 C15.83886719 30.04223633 15.83886719 30.04223633 15 32 C13.49707031 33.2644043 13.49707031 33.2644043 11.578125 34.32421875 C10.88203125 34.71287109 10.1859375 35.10152344 9.46875 35.50195312 C8.7365625 35.89318359 8.004375 36.28441406 7.25 36.6875 C6.53328125 37.09033203 5.8165625 37.49316406 5.078125 37.90820312 C1.35118375 39.95322512 -1.77210819 41.28756266 -6 42 C-8.3358962 38.09746467 -10.65036886 34.18330889 -12.94580078 30.25683594 C-13.72973195 28.9226922 -14.51942803 27.59191859 -15.31494141 26.26464844 C-16.45704388 24.35686677 -17.57791092 22.43795181 -18.6953125 20.515625 C-19.05561554 19.92380432 -19.41591858 19.33198364 -19.78713989 18.722229 C-22.1502917 14.59089043 -22.1502917 14.59089043 -21.42871094 11.75390625 C-19.89099182 9.86617998 -18.50599668 8.71470962 -16.4453125 7.421875 C-15.74792969 6.98359375 -15.05054687 6.5453125 -14.33203125 6.09375 C-13.60371094 5.6503125 -12.87539062 5.206875 -12.125 4.75 C-11.40441406 4.29109375 -10.68382813 3.8321875 -9.94140625 3.359375 C-4.51241629 0 -4.51241629 0 0 0 Z M-7.890625 4.08984375 C-8.59960938 4.54423828 -9.30859375 4.99863281 -10.0390625 5.46679688 C-11.13347656 6.19479492 -11.13347656 6.19479492 -12.25 6.9375 C-12.99507812 7.41896484 -13.74015625 7.90042969 -14.5078125 8.39648438 C-16.34611613 9.58666814 -18.17606767 10.78795324 -20 12 C-18.73735777 16.15020378 -17.19097854 19.68170244 -14.9609375 23.3984375 C-14.38085938 24.37167969 -13.80078125 25.34492188 -13.203125 26.34765625 C-12.59984375 27.34667969 -11.9965625 28.34570312 -11.375 29.375 C-10.76398438 30.39722656 -10.15296875 31.41945312 -9.5234375 32.47265625 C-8.02077463 34.98492073 -6.51284285 37.49385721 -5 40 C-0.86218159 39.09405698 2.53681733 37.21003678 6.1875 35.125 C6.82880859 34.77308594 7.47011719 34.42117187 8.13085938 34.05859375 C12.06661586 31.92129038 12.06661586 31.92129038 14 28 C12.40357383 24.22611746 10.33403084 20.71020112 8.3137207 17.14746094 C7.31728668 15.38347385 6.34643865 13.60703366 5.37695312 11.828125 C4.75369141 10.71695313 4.13042969 9.60578125 3.48828125 8.4609375 C2.91634033 7.43790527 2.34439941 6.41487305 1.75512695 5.36083984 C0.22103928 2.92209934 0.22103928 2.92209934 -1.97485352 2.02807617 C-4.57254532 1.99206236 -5.72340766 2.67416145 -7.890625 4.08984375 Z " fill="#58D5E0" transform="translate(111,123)"/>
<path d="M0 0 C2.3125 1.5625 2.3125 1.5625 4 4 C4.58047366 7.9907564 4.40151834 10.21442063 2.5625 13.8125 C-0.97666778 16.83374079 -4.47378345 17.35201601 -9 18 C-8.41992188 18.67095703 -8.41992188 18.67095703 -7.828125 19.35546875 C-4.81609925 22.8521026 -1.85678969 26.37407463 1 30 C-0.32 30.99 -1.64 31.98 -3 33 C-6.3 29.7 -9.6 26.4 -13 23 C-14.051875 23.9075 -15.10375 24.815 -16.1875 25.75 C-19.07778118 28.22906231 -22.00859479 30.64313529 -25 33 C-25.99 31.68 -26.98 30.36 -28 29 C-25.36 26.36 -22.72 23.72 -20 21 C-20 25.38968456 -22.12805101 26.76905739 -25 30 C-24.55269531 29.61328125 -24.10539063 29.2265625 -23.64453125 28.828125 C-23.03996094 28.30734375 -22.43539062 27.7865625 -21.8125 27.25 C-21.22082031 26.73953125 -20.62914062 26.2290625 -20.01953125 25.703125 C-17.71488894 23.75955818 -15.35413857 21.88331086 -13 20 C-9.7 23.3 -6.4 26.6 -3 30 C-2.77568714 27.7589659 -2.77568714 27.7589659 -4.96875 25.8359375 C-5.8040625 25.02382813 -6.639375 24.21171875 -7.5 23.375 C-8.3353125 22.55773437 -9.170625 21.74046875 -10.03125 20.8984375 C-10.6809375 20.27195312 -11.330625 19.64546875 -12 19 C-11.34 17.68 -10.68 16.36 -10 15 C-8.63875 15.061875 -8.63875 15.061875 -7.25 15.125 C-4.07277535 15.00279905 -2.58783176 14.75602869 0 13 C2.14915785 9.77626323 2.38286803 8.73296326 2 5 C1.34 4.34 0.68 3.68 0 3 C-3.67704228 3.13371063 -6.11002981 3.22486467 -8.9375 5.6875 C-10.22261879 8.02150762 -10.22261879 8.02150762 -9.875 10.9375 C-10 14 -10 14 -12.5 16.875 C-13.325 17.57625 -14.15 18.2775 -15 19 C-15.66 18.67 -16.32 18.34 -17 18 C-16.360625 17.505 -15.72125 17.01 -15.0625 16.5 C-12.65141657 13.57747464 -12.68138634 11.65557699 -12.40625 7.96875 C-11.72114695 4.64863522 -9.5497487 3.05223676 -7 1 C-4.4086487 -0.29567565 -2.87704151 -0.34250494 0 0 Z " fill="#5BD6E1" transform="translate(264,27)"/>
<path d="M0 0 C5.29012124 4.40843437 10.18808428 9.07559794 15 14 C13.375 19.75 13.375 19.75 10 22 C8.18443212 20.21135158 6.37248378 18.41928379 4.5625 16.625 C4.04623047 16.11710937 3.52996094 15.60921875 2.99804688 15.0859375 C-1.92363238 10.19642609 -1.92363238 10.19642609 -2.1875 6.0625 C-2 3 -2 3 0 0 Z " fill="#51D3DF" transform="translate(235,27)"/>
<path d="M0 0 C3.75389674 1.73864691 5.79763424 3.4109595 8 7 C8 12.22605706 5.44895558 16.51214651 3 21 C2.34 21 1.68 21 1 21 C-0.7265625 19.25 -0.7265625 19.25 -2.625 17 C-3.25664062 16.2575 -3.88828125 15.515 -4.5390625 14.75 C-5.26222656 13.88375 -5.26222656 13.88375 -6 13 C-4.31326082 8.50202887 -2.18326108 4.27113698 0 0 Z " fill="#25C8D7" transform="translate(258,138)"/>
<path d="M0 0 C1.45823212 -0.0270043 2.91660675 -0.04639787 4.375 -0.0625 C5.18710937 -0.07410156 5.99921875 -0.08570313 6.8359375 -0.09765625 C9 0 9 0 11 1 C9.31057815 5.50512494 7.17831861 9.7159734 5 14 C1.37 13.67 -2.26 13.34 -6 13 C-4.58707905 8.1725201 -2.57025846 4.2837641 0 0 Z " fill="#24C8D7" transform="translate(268,147)"/>
<path d="M0 0 C6.6 0 13.2 0 20 0 C20 2.31 20 4.62 20 7 C13.4 7 6.8 7 0 7 C0 4.69 0 2.38 0 0 Z " fill="#22C7D6" transform="translate(590,367)"/>
<path d="M0 0 C0.78503906 0.00322266 1.57007813 0.00644531 2.37890625 0.00976562 C3.16394531 -0.00634766 3.94898438 -0.02246094 4.7578125 -0.0390625 C7.03515625 -0.04101562 7.03515625 -0.04101562 10.87890625 0.32226562 C11.53890625 1.31226563 12.19890625 2.30226563 12.87890625 3.32226562 C12.42515625 3.67289062 11.97140625 4.02351563 11.50390625 4.38476562 C9.23229291 7.09322768 8.71091771 9.93021891 7.87890625 13.32226562 C5.15624125 13.82125939 2.43333122 14.31607175 -0.29296875 14.79492188 C-2.37693773 15.18350725 -4.4440487 15.66525395 -6.49609375 16.19726562 C-9.12109375 16.32226562 -9.12109375 16.32226562 -11.74609375 14.50976562 C-12.52984375 13.78789062 -13.31359375 13.06601562 -14.12109375 12.32226562 C-15.43248279 11.61340668 -16.75886392 10.9277011 -18.12109375 10.32226562 C-15.00012435 6.22042012 -13.12672967 3.94571511 -8.12109375 2.32226562 C-5.50149751 -0.29733062 -3.57255582 0.03370336 0 0 Z M-8.12109375 5.32226562 C-10.12109375 5.98893229 -12.12109375 6.65559896 -14.12109375 7.32226562 C-14.45109375 8.31226563 -14.78109375 9.30226563 -15.12109375 10.32226562 C-14.35796875 10.77601563 -13.59484375 11.22976563 -12.80859375 11.69726562 C-10.88476561 12.86051055 -8.99168151 14.07520712 -7.12109375 15.32226562 C-5.22290688 14.94271469 -5.22290688 14.94271469 -3.30859375 14.00976562 C0.08244888 12.5931748 3.21109551 11.78074197 6.87890625 11.32226562 C8.39844334 6.40644485 8.39844334 6.40644485 8.87890625 1.32226562 C6.79672263 1.21394393 4.71291496 1.13653021 2.62890625 1.07226562 C1.46875 1.02585937 0.30859375 0.97945313 -0.88671875 0.93164062 C-4.76540189 1.40008062 -5.62602156 2.44333617 -8.12109375 5.32226562 Z " fill="#58D5E0" transform="translate(680.12109375,419.677734375)"/>
<path d="M0 0 C7.92 0 15.84 0 24 0 C23.67 0.66 23.34 1.32 23 2 C19.7 2 16.4 2 13 2 C13 12.23 13 22.46 13 33 C12.34 33 11.68 33 11 33 C11 22.77 11 12.54 11 2 C7.04 2 3.08 2 -1 2 C-0.67 1.34 -0.34 0.68 0 0 Z " fill="#55D4E0" transform="translate(180,238)"/>
<path d="M0 0 C0 0.33 0 0.66 0 1 C-3.3 1 -6.6 1 -10 1 C-10.12375 1.7425 -10.2475 2.485 -10.375 3.25 C-10.95486701 5.80141485 -11.73708739 7.7267573 -13 10 C-11.35 10 -9.7 10 -8 10 C-8 10.33 -8 10.66 -8 11 C-13.75 11.125 -13.75 11.125 -16 10 C-19 3.76923077 -19 3.76923077 -19 0 C-12.5510809 -1.31909709 -6.51244208 -0.69508823 0 0 Z " fill="#4FD3DE" transform="translate(533,44)"/>
<path d="M0 0 C3.68069887 1.53643852 5.98775204 3.78150945 8.75 6.625 C9.54921875 7.44226562 10.3484375 8.25953125 11.171875 9.1015625 C12.07679688 10.04128906 12.07679688 10.04128906 13 11 C12.01 12.485 12.01 12.485 11 14 C7.25419852 13.4250237 5.37482194 11.86362938 2.6875 9.25 C1.61048828 8.23679687 1.61048828 8.23679687 0.51171875 7.203125 C-1 5 -1 5 -0.73046875 2.234375 C-0.48941406 1.49703125 -0.24835938 0.7596875 0 0 Z " fill="#25C8D7" transform="translate(235,30)"/>
<path d="M0 0 C5.62541841 0.45003347 8.61487125 1.68441485 13 5 C12.01 5.495 12.01 5.495 11 6 C9.23138813 4.97098946 7.46434554 3.93555301 5.75390625 2.8125 C3.82740378 1.67658569 3.82740378 1.67658569 1 3 C0.67 3.99 0.34 4.98 0 6 C1.32 5.34 2.64 4.68 4 4 C4 5.65 4 7.3 4 9 C1.36 8.34 -1.28 7.68 -4 7 C-8.73096974 12.49402937 -8.77115017 17.9285403 -9 25 C-9.33 25 -9.66 25 -10 25 C-10.51294645 17.52238068 -10.73957613 11.66263711 -6.484375 5.29296875 C-5 4 -5 4 -1 4 C-0.67 2.68 -0.34 1.36 0 0 Z " fill="#5CD6E1" transform="translate(234,355)"/>
<path d="M0 0 C4.97209562 1.76429199 9.43438061 4.3939166 14 7 C13.67 8.65 13.34 10.3 13 12 C12.01 12 11.02 12 10 12 C10.33 10.68 10.66 9.36 11 8 C10.34 8 9.68 8 9 8 C9 8.66 9 9.32 9 10 C8.01 10 7.02 10 6 10 C6.33 8.35 6.66 6.7 7 5 C6.34 5 5.68 5 5 5 C4.67 5.99 4.34 6.98 4 8 C3.01 7.67 2.02 7.34 1 7 C1 6.01 1 5.02 1 4 C0.01 4.33 -0.98 4.66 -2 5 C-1.125 1.125 -1.125 1.125 0 0 Z " fill="#27C9D8" transform="translate(236,356)"/>
<path d="M0 0 C-1.49842661 4.42672436 -4.43243346 5.66040007 -8.4375 7.75 C-10.16806641 8.67039062 -10.16806641 8.67039062 -11.93359375 9.609375 C-15 11 -15 11 -18 11 C-18.33 10.01 -18.66 9.02 -19 8 C-15.07561214 6.33510818 -11.10899581 5.12795963 -7 4 C-7 3.01 -7 2.02 -7 1 C-3.375 -1.125 -3.375 -1.125 0 0 Z " fill="#28C9D7" transform="translate(729,300)"/>
<path d="M0 0 C6.03167763 0.30158388 9.70395575 3.02786385 14 7 C20 13.73728814 20 13.73728814 20 18 C19.34 18 18.68 18 18 18 C16.921875 16.42578125 16.921875 16.42578125 15.75 14.3125 C11.82313223 7.81364867 7.03664692 4.67392583 0 2 C0 1.34 0 0.68 0 0 Z " fill="#EDF8FA" transform="translate(412,203)"/>
<path d="M0 0 C0.99 0.33 1.98 0.66 3 1 C4.1875 3.5625 4.1875 3.5625 5 6 C9.75481646 5.42365861 12.97048212 3.44931479 17 1 C16.3125 2.875 16.3125 2.875 15 5 C13.7315625 5.495 13.7315625 5.495 12.4375 6 C11.633125 6.33 10.82875 6.66 10 7 C9.11306697 9.04105639 9.11306697 9.04105639 9 11 C7.68 11 6.36 11 5 11 C4.35165346 9.730447 3.70642185 8.45930294 3.0625 7.1875 C2.70285156 6.47980469 2.34320313 5.77210938 1.97265625 5.04296875 C1 3 1 3 0 0 Z " fill="#5CD6E1" transform="translate(125,438)"/>
<path d="M0 0 C2.5625 0.1875 2.5625 0.1875 4.5625 2.1875 C4.00694444 6.74305556 4.00694444 6.74305556 2.5625 8.1875 C0.0625 8.3125 0.0625 8.3125 -2.4375 8.1875 C-3.4375 7.1875 -3.4375 7.1875 -3.5625 4.1875 C-3.39891479 0.26145498 -3.39891479 0.26145498 0 0 Z " fill="#25C8D7" transform="translate(110.4375,143.8125)"/>
<path d="M0 0 C0.33 0.99 0.66 1.98 1 3 C-3.29 4.65 -7.58 6.3 -12 8 C-9.04626185 0.61565462 -8.00783596 -0.45327373 0 0 Z " fill="#55D4E0" transform="translate(96,322)"/>
<path d="M0 0 C1 3 1 3 -0.0625 5.75 C-3.31232437 11.2013183 -6.57097798 16.29820005 -13 18 C-12 15 -12 15 -9.3125 12.9375 C-4.96229951 9.52475191 -2.61715599 4.77955792 0 0 Z " fill="#F5FAFB" transform="translate(432,238)"/>
<path d="M0 0 C5.29012124 4.40843437 10.18808428 9.07559794 15 14 C12 14 12 14 9.58984375 11.8125 C8.71457031 10.884375 7.83929688 9.95625 6.9375 9 C5.32794713 7.29827009 3.68926931 5.62262575 2 4 C1.34 4 0.68 4 0 4 C-0.66 5.32 -1.32 6.64 -2 8 C-1.125 1.125 -1.125 1.125 0 0 Z " fill="#5DD6E1" transform="translate(235,27)"/>
<path d="M0 0 C2.31 0 4.62 0 7 0 C6.67 1.98 6.34 3.96 6 6 C4.68 6 3.36 6 2 6 C1.34 4.02 0.68 2.04 0 0 Z " fill="#24C8D7" transform="translate(514,45)"/>
<path d="M0 0 C1.65 0.33 3.3 0.66 5 1 C4.67 2.65 4.34 4.3 4 6 C2.35 5.67 0.7 5.34 -1 5 C-0.67 3.35 -0.34 1.7 0 0 Z " fill="#4DD2DE" transform="translate(101,132)"/>
<path d="M0 0 C0.556875 0.391875 1.11375 0.78375 1.6875 1.1875 C-4.9375 5.1875 -4.9375 5.1875 -8.3125 5.1875 C-7.3125 2.1875 -7.3125 2.1875 -5 0.375 C-2.3125 -0.8125 -2.3125 -0.8125 0 0 Z " fill="#27C9D7" transform="translate(704.3125,279.8125)"/>
<path d="M0 0 C0 0.99 0 1.98 0 3 C-5.75 6 -5.75 6 -8 6 C-7.75 4.125 -7.75 4.125 -7 2 C-4.41847698 0.27898465 -3.15081975 0 0 0 Z " fill="#29C9D8" transform="translate(714,274)"/>
<path d="M0 0 C1.98 0.495 1.98 0.495 4 1 C3.67 2.65 3.34 4.3 3 6 C1.68 5.67 0.36 5.34 -1 5 C-0.67 3.35 -0.34 1.7 0 0 Z " fill="#50D3DF" transform="translate(535,145)"/>
<path d="M0 0 C1.98 0.495 1.98 0.495 4 1 C3.67 2.65 3.34 4.3 3 6 C1.68 5.67 0.36 5.34 -1 5 C-0.67 3.35 -0.34 1.7 0 0 Z " fill="#4FD3DF" transform="translate(528,141)"/>
<path d="M0 0 C2.31 0 4.62 0 7 0 C2.25 4.875 2.25 4.875 0 6 C0 4.02 0 2.04 0 0 Z " fill="#B7DADD" transform="translate(408,346)"/>
<path d="M0 0 C1.4540625 0.0309375 1.4540625 0.0309375 2.9375 0.0625 C2.9375 0.7225 2.9375 1.3825 2.9375 2.0625 C-1.5175 3.5475 -1.5175 3.5475 -6.0625 5.0625 C-3.56765464 0.07280928 -3.56765464 0.07280928 0 0 Z " fill="#2AC9D8" transform="translate(92.0625,321.9375)"/>
<path d="M0 0 C2.12300942 3.53834904 2.69690596 6.90823045 3 11 C2.34 11.66 1.68 12.32 1 13 C0.63779734 11.20994059 0.28547531 9.41787943 -0.0625 7.625 C-0.25972656 6.62726562 -0.45695313 5.62953125 -0.66015625 4.6015625 C-1 2 -1 2 0 0 Z " fill="#4DD2DE" transform="translate(530,23)"/>
<path d="M0 0 C1.98 0.495 1.98 0.495 4 1 C3.67 2.32 3.34 3.64 3 5 C1.68 5 0.36 5 -1 5 C-0.67 3.35 -0.34 1.7 0 0 Z " fill="#52D3DF" transform="translate(542,149)"/>
<path d="M0 0 C0.33 0.99 0.66 1.98 1 3 C0.67 3.66 0.34 4.32 0 5 C-0.66 5 -1.32 5 -2 5 C-2.33 5.66 -2.66 6.32 -3 7 C-3.66 6.67 -4.32 6.34 -5 6 C-4.75 4.125 -4.75 4.125 -4 2 C-1.9375 0.75 -1.9375 0.75 0 0 Z " fill="#3BCEDB" transform="translate(687,128)"/>
<path d="M0 0 C0.99 0 1.98 0 3 0 C3 2.64 3 5.28 3 8 C2.01 8 1.02 8 0 8 C0 5.36 0 2.72 0 0 Z " fill="#55D4E0" transform="translate(195,251)"/>
<path d="M0 0 C0.99 0.33 1.98 0.66 3 1 C3 3.31 3 5.62 3 8 C2.01 8 1.02 8 0 8 C0 5.36 0 2.72 0 0 Z " fill="#55D4E0" transform="translate(186,251)"/>
<path d="M0 0 C3 1 3 1 5 4 C5.125 7.1875 5.125 7.1875 5 10 C4.731875 9.4225 4.46375 8.845 4.1875 8.25 C3.04946754 5.94252104 3.04946754 5.94252104 1.375 3.875 C0 2 0 2 0 0 Z " fill="#51D3E0" transform="translate(125,438)"/>
</svg>
